<svg xmlns="http://www.w3.org/2000/svg" xmlns:xlink="http://www.w3.org/1999/xlink" viewBox="0 0 217.08 212.72">
  <defs>
    <linearGradient id="a" x1="127.1" y1="13.91" x2="124.37" y2="6.41" gradientTransform="translate(42.61 45.19) rotate(-4.69)" gradientUnits="userSpaceOnUse">
      <stop offset="0" stop-color="#b1278f"/>
      <stop offset="0.48" stop-color="#af278e"/>
      <stop offset="0.65" stop-color="#a8258a"/>
      <stop offset="0.76" stop-color="#9e2383"/>
    </linearGradient>
    <linearGradient id="b" x1="125.26" y1="21.87" x2="116.18" y2="-3.09" gradientTransform="translate(42.61 45.19) rotate(-4.69)" gradientUnits="userSpaceOnUse">
      <stop offset="0" stop-color="#ec178d"/>
      <stop offset="0.47" stop-color="#ea178d"/>
      <stop offset="0.64" stop-color="#e3188c"/>
      <stop offset="0.76" stop-color="#d81a8a"/>
      <stop offset="0.86" stop-color="#c71d88"/>
      <stop offset="0.95" stop-color="#b12085"/>
      <stop offset="1" stop-color="#9e2383"/>
    </linearGradient>
    <radialGradient id="c" cx="52.48" cy="13.04" r="118.77" gradientTransform="translate(5.2 -11.21) rotate(8.15)" gradientUnits="userSpaceOnUse">
      <stop offset="0" stop-color="#ec178d"/>
      <stop offset="0.24" stop-color="#cb1c8c"/>
      <stop offset="0.77" stop-color="#772888"/>
      <stop offset="1" stop-color="#512e87"/>
    </radialGradient>
    <radialGradient id="d" cx="-5.89" cy="-8.72" r="20.48" gradientTransform="matrix(1.04, -0.09, 0.09, 1.07, 30.21, 48.09)" gradientUnits="userSpaceOnUse">
      <stop offset="0" stop-color="#ba258e"/>
      <stop offset="0.23" stop-color="#b5258d"/>
      <stop offset="0.51" stop-color="#a5278b"/>
      <stop offset="0.83" stop-color="#8b2987"/>
      <stop offset="1" stop-color="#7a2a85"/>
    </radialGradient>
    <radialGradient id="e" cx="104.36" cy="-32.57" r="14.09" gradientTransform="matrix(1.04, -0.09, 0.08, 0.94, 29.87, 43.84)" gradientUnits="userSpaceOnUse">
      <stop offset="0.09" stop-color="#e21a8d"/>
      <stop offset="1" stop-color="#952584"/>
    </radialGradient>
    <radialGradient id="f" cx="111.95" cy="-21.67" r="8.57" gradientTransform="matrix(1.04, -0.09, 0.08, 0.94, 29.98, 45.26)" xlink:href="#e"/>
    <radialGradient id="g" cx="90.16" cy="-34.85" r="9.43" gradientTransform="matrix(1.04, -0.09, 0.08, 0.94, 29.84, 43.54)" xlink:href="#e"/>
    <radialGradient id="h" cx="80.61" cy="-20.69" r="52.44" gradientTransform="matrix(1.05, -0.03, 0.02, 0.78, 27.69, 29.31)" gradientUnits="userSpaceOnUse">
      <stop offset="0" stop-color="#e21a8d"/>
      <stop offset="0.25" stop-color="#df1a8d"/>
      <stop offset="0.44" stop-color="#d51c8c"/>
      <stop offset="0.6" stop-color="#c51e8a"/>
      <stop offset="0.76" stop-color="#af2187"/>
      <stop offset="0.89" stop-color="#952584"/>
    </radialGradient>
    <linearGradient id="i" x1="120.36" y1="-3.16" x2="117.63" y2="-10.66" gradientTransform="translate(95.44 173.07) rotate(-124.69)" xlink:href="#a"/>
    <linearGradient id="j" x1="118.53" y1="4.8" x2="109.44" y2="-20.16" gradientTransform="translate(95.44 173.07) rotate(-124.69)" xlink:href="#b"/>
    <radialGradient id="k" cx="42.12" cy="-2.11" r="118.77" gradientTransform="translate(65.31 233.67) rotate(-111.85)" xlink:href="#c"/>
    <radialGradient id="l" cx="-12.35" cy="-24.61" r="20.48" gradientTransform="matrix(-0.6, -0.86, 0.89, -0.61, 104.15, 182.36)" xlink:href="#d"/>
    <radialGradient id="m" cx="97.89" cy="-48.45" r="14.09" gradientTransform="matrix(-0.6, -0.86, 0.78, -0.54, 98.93, 185.96)" xlink:href="#e"/>
    <radialGradient id="n" cx="105.49" cy="-37.56" r="8.57" gradientTransform="matrix(-0.6, -0.86, 0.78, -0.54, 100.1, 185.15)" xlink:href="#e"/>
    <radialGradient id="o" cx="83.7" cy="-50.73" r="9.43" gradientTransform="matrix(-0.6, -0.86, 0.78, -0.54, 98.68, 186.13)" xlink:href="#e"/>
    <radialGradient id="p" cx="73.37" cy="-41.98" r="52.44" gradientTransform="matrix(-0.55, -0.89, 0.67, -0.41, 89.15, 193.93)" xlink:href="#h"/>
    <linearGradient id="q" x1="135.24" y1="-0.37" x2="132.51" y2="-7.87" gradientTransform="matrix(-0.43, 0.9, -0.9, -0.43, 177.54, 65.89)" xlink:href="#a"/>
    <linearGradient id="r" x1="133.4" y1="7.6" x2="124.32" y2="-17.37" gradientTransform="matrix(-0.43, 0.9, -0.9, -0.43, 177.54, 65.89)" xlink:href="#b"/>
    <radialGradient id="s" cx="57.25" cy="-2.69" r="118.77" gradientTransform="matrix(-0.62, 0.79, -0.79, -0.62, 245.09, 61.69)" xlink:href="#c"/>
    <radialGradient id="t" cx="1.86" cy="-21.98" r="20.48" gradientTransform="matrix(-0.45, 0.95, -0.97, -0.46, 181.23, 53.7)" xlink:href="#d"/>
    <radialGradient id="u" cx="112.1" cy="-45.82" r="14.09" gradientTransform="matrix(-0.45, 0.95, -0.85, -0.41, 186.65, 56.28)" xlink:href="#e"/>
    <radialGradient id="v" cx="119.7" cy="-34.93" r="8.57" gradientTransform="matrix(-0.45, 0.95, -0.85, -0.41, 185.36, 55.67)" xlink:href="#e"/>
    <radialGradient id="w" cx="97.91" cy="-48.1" r="9.43" gradientTransform="matrix(-0.45, 0.95, -0.85, -0.41, 186.92, 56.41)" xlink:href="#e"/>
    <radialGradient id="x" cx="87.69" cy="-39.36" r="52.44" gradientTransform="matrix(-0.49, 0.92, -0.69, -0.37, 198.76, 60.91)" xlink:href="#h"/>
  </defs>
  <title>logo</title>
  <g>
    <g>
      <path d="M165.46,46.93l0.48,0q0.65,0.06,1.33.08l1.14,0,1.18,0L171,47l0.93-.06c1-.08,2-0.19,2.89-0.3a13.09,13.09,0,0,1,3.73-2.77v0c-3.51,1.67-7.66,1.94-11.42,1.94-2.88,0-5.77-.24-8.65-0.39A24.67,24.67,0,0,0,165.46,46.93Z" fill="url(#a)"/>
      <path d="M144.53,39s9.2,8.3,16.92,10.75,17.17,2.68,17.23,2.68h0s-3.82-1.76-3.52-3.22,5.51-3.56,5.51-3.56-8.87,2-15.21,1.29c-5.41-.6-8.31-1.58-13.22-5.49s-4.72-3.94-4.72-3.94Z" fill="url(#b)"/>
      <g>
        <path d="M192.42,47.66a22.26,22.26,0,0,0-2.34-3.82,110.43,110.43,0,0,0-11.3-15.22C153,0.55,78.9-13.62,61.85,18c-1.95,3.61-6.7,5.19-10.81,1.43a53.13,53.13,0,0,0-4.88-3.84,8.86,8.86,0,0,0-7.82-1.77c-3.88.94-7.89,2.88-9.85,7.08-1.24,2.65-1.11,3.79-.83,6.8,0.23,2.49,1,4.83,1.33,7.29,0,0.25,0,.49,0,0.73,6.87-2.86,11.29.86,17.86,7.76a27.32,27.32,0,0,1,4-1.11c1.46-.29,2.94-0.49,4.41-0.73,1.2-.2,2.4-0.63,3.6-0.74,3.26-.29,6.59,1.72,9.42,3.42s5.81,4.1,9,5.21A31.06,31.06,0,0,0,86.11,51a44.28,44.28,0,0,0,17-2.51c5.58-2,11.15-4,16.79-5.77,4.59-1.45,8.76-2.55,13.57-2a71.78,71.78,0,0,1,9.8,1.82c2.54,0.64,5,1.61,7.57,2.15a35.56,35.56,0,0,0,6,.58c3.41,0.13,6.84.47,10.25,0.47,3.76,0,7.91-.27,11.42-1.94A5.39,5.39,0,0,0,181.66,47c1,0.46,3,1.28,3.82.11,0.83,0.82,1.63,1.71,2.5,2.47a3,3,0,0,0,3.34.73,6.53,6.53,0,0,0,1.39-2.14A2.22,2.22,0,0,0,192.42,47.66ZM37.79,31.28a2.88,2.88,0,0,1-3.53-1.77,2.64,2.64,0,0,1,1.19-3.62A2.88,2.88,0,0,1,39,27.66,2.64,2.64,0,0,1,37.79,31.28Z" fill="url(#c)"/>
        <path d="M29,36.63c-0.47,3.67-2.6,6.55-4.87,9.1a58,58,0,0,1-6.36,6.12c1.94,6,9.49,6,13.08,3.8S37.38,50,40.5,47c1.54-1.47,3.81-2.27,5.66-3.09C39.74,37.15,35.64,33.73,29,36.63Z" fill="url(#d)"/>
      </g>
      <g>
        <path d="M126.46,10c2.3,1.18,0,2.57-2,3.44,2.94-1,7.87-2.22,9,.05,0.84,1.63-.48,2.62-2,3.21,2.6-.42,5.92-0.54,7.21,1.22l0,0c3.55-1.3,6.71-2.91,6.88-4.61S141.11,12,136,13c2.89-1.11,5-2.44,4.6-3.86-0.67-2.36-8.46-1-14.72.57A4.44,4.44,0,0,1,126.46,10Z" fill="url(#e)"/>
        <path d="M151.95,18.26c-0.6-2.14-7.09-1.31-13.09,0,0.65,1.33-1,2.2-2.87,2.76,3.59-.5,8-0.69,8.1,1.36a2,2,0,0,1,0,.35C148.47,21.64,152.47,20.15,151.95,18.26Z" fill="url(#f)"/>
        <path d="M119.3,7.67c1.15,0.35,1.4.88,1.2,1.45a5.63,5.63,0,0,1-2.16,2.11c1.5-.83,4.48-2.2,7-1.65,2.73-1.16,4.75-2.59,2.9-3.92-4-2.9-17.34,2.79-17.34,2.79L111,8.6C115.21,7.77,118.38,7.39,119.3,7.67Z" fill="url(#g)"/>
        <path d="M148.92,25.26c-0.8-.84-4-0.79-6.93-0.53,1.23-.46,2.15-1.2,2.09-2.39-0.1-2.06-4.5-1.86-8.1-1.36,2-.6,3.78-1.57,2.68-3.08-1.29-1.76-4.61-1.64-7.21-1.22,1.56-.59,2.89-1.58,2-3.21-1.18-2.28-6.11-1-9-.05,2-.87,4.31-2.26,2-3.44-2.7-1.38-6.39.3-8.12,1.26a5.63,5.63,0,0,0,2.16-2.11c0.2-.56-0.05-1.1-1.2-1.45-3.71-1.14-44.43,8.66-44.13,14.74,0.31,6.34,18.31,10.72,40.19,9.79,9-.39,32.65-3.25,33.71-6.19A0.68,0.68,0,0,0,148.92,25.26Z" fill="url(#h)"/>
      </g>
    </g>
    <g>
      <path d="M25.32,81.06c-0.06-.14-0.14-0.29-0.21-0.44q-0.28-.59-0.59-1.19c-0.18-.33-0.36-0.66-0.55-1s-0.4-.68-0.6-1-0.52-.82-0.78-1.22l-0.52-.77c-0.57-.83-1.15-1.62-1.71-2.35a13.09,13.09,0,0,1-4.27-1.84l0,0c3.2,2.2,5.51,5.66,7.39,8.92,1.44,2.49,2.68,5.11,4,7.69A24.67,24.67,0,0,0,25.32,81.06Z" fill="url(#i)"/>
      <path d="M28.91,103.15s2.59-12.12.85-20S23.5,66.92,23.47,66.87h0s0.39,4.19-1,4.66-5.84-3-5.84-3,6.16,6.68,8.72,12.53c2.19,5,2.79,8,1.85,14.19s-1.06,6.06-1.06,6.06Z" fill="url(#j)"/>
      <g>
        <path d="M12.47,57.34a22.26,22.26,0,0,0-2.14,3.93,110.43,110.43,0,0,0-7.53,17.4C-8.61,115,16.17,186.3,52.09,185.25c4.1-.12,7.84,3.21,6.64,8.65a53.13,53.13,0,0,0-.89,6.15,8.86,8.86,0,0,0,2.38,7.65c2.75,2.89,6.44,5.39,11.05,5,2.92-.25,3.84-0.93,6.3-2.68,2-1.45,3.66-3.31,5.65-4.8,0.2-.15.4-0.27,0.61-0.4-5.91-4.52-4.9-10.21-2.21-19.34a27.32,27.32,0,0,1-3-2.91c-1-1.12-1.89-2.3-2.84-3.46-0.77-.94-1.75-1.76-2.44-2.75-1.88-2.68-1.81-6.57-1.75-9.87,0.06-3.47.65-7.08,0-10.43a31.06,31.06,0,0,0-3.07-8.3,44.28,44.28,0,0,0-10.69-13.5c-4.51-3.84-9-7.66-13.39-11.65-3.55-3.25-6.59-6.31-8.54-10.74a71.78,71.78,0,0,1-3.32-9.4c-0.71-2.52-1.11-5.15-1.92-7.63a35.56,35.56,0,0,0-2.52-5.51c-1.59-3-3-6.15-4.72-9.11-1.88-3.26-4.19-6.72-7.39-8.92A5.39,5.39,0,0,0,17.28,67c-0.09-1.07-.38-3.2-1.81-3.36,0.3-1.13.66-2.27,0.89-3.4a3,3,0,0,0-1-3.26,6.53,6.53,0,0,0-2.55-.13A2.22,2.22,0,0,0,12.47,57.34ZM75.6,199.45a2.88,2.88,0,0,1,.23,3.94,2.64,2.64,0,0,1-3.73.78,2.88,2.88,0,0,1-.23-3.94A2.64,2.64,0,0,1,75.6,199.45Z" fill="url(#k)"/>
        <path d="M84.62,204.38c3.41-1.43,7-1,10.32-.33a58,58,0,0,1,8.48,2.45c4.22-4.68.48-11.24-3.25-13.23s-8.18-2.8-12.34-4c-2-.59-3.87-2.16-5.51-3.35C79.71,194.83,78.8,200.09,84.62,204.38Z" fill="url(#l)"/>
      </g>
      <g>
        <path d="M12.82,133.32c-0.13-2.58,2.23-1.28,4,0-2.32-2.05-5.86-5.7-4.48-7.86,1-1.54,2.51-.89,3.8.16-1.66-2-3.43-4.85-2.54-6.85l0,0c-2.9-2.43-5.88-4.35-7.43-3.65s1.07,4.51,4.52,8.41c-2.41-1.94-4.61-3.12-5.65-2.06-1.71,1.76,3.39,7.81,7.85,12.47A4.44,4.44,0,0,1,12.82,133.32Z" fill="url(#m)"/>
        <path d="M7.25,107.1c-1.55,1.58,2.41,6.79,6.5,11.36,0.82-1.23,2.39-.26,3.82,1.1-2.23-2.86-4.6-6.58-2.87-7.69a2,2,0,0,1,.31-0.16C11.91,108.42,8.62,105.69,7.25,107.1Z" fill="url(#n)"/>
        <path d="M14.4,140.67c-0.27-1.17.07-1.65,0.66-1.76a5.63,5.63,0,0,1,2.91.82c-1.47-.88-4.15-2.78-4.93-5.24-2.37-1.78-4.62-2.82-4.85-.55-0.49,4.95,11.08,13.62,11.08,13.62l0.1-.15C16.53,144.15,14.61,141.6,14.4,140.67Z" fill="url(#o)"/>
        <path d="M14.82,106.22c-0.33,1.11,1.29,3.82,3,6.27-1-.83-2.12-1.26-3.12-0.61-1.73,1.11.64,4.83,2.87,7.69-1.54-1.47-3.25-2.49-4-.78-0.88,2,.88,4.81,2.54,6.85-1.29-1.06-2.81-1.71-3.8-.16-1.38,2.16,2.16,5.81,4.48,7.86-1.75-1.3-4.11-2.6-4,0,0.15,3,3.45,5.39,5.15,6.41a5.63,5.63,0,0,0-2.91-.82c-0.59.11-.92,0.59-0.66,1.76,0.86,3.78,29.71,34.15,34.83,30.85,5.33-3.44.13-21.22-11.62-39.7-4.85-7.63-19.14-26.65-22.21-26.1A0.68,0.68,0,0,0,14.82,106.22Z" fill="url(#p)"/>
      </g>
    </g>
    <g>
      <path d="M124,184.87l-0.28.4q-0.38.54-.74,1.11c-0.2.32-.4,0.64-0.59,1s-0.39.68-.58,1-0.45.86-.67,1.29l-0.41.84c-0.43.91-.83,1.8-1.18,2.66a13.09,13.09,0,0,1,.54,4.61h0c0.3-3.87,2.15-7.6,4-10.86,1.44-2.49,3.09-4.88,4.66-7.3A24.67,24.67,0,0,0,124,184.87Z" fill="url(#q)"/>
      <path d="M141.37,170.72s-11.79,3.82-17.76,9.28-10.91,13.53-10.94,13.58h0s3.44-2.43,4.55-1.44,0.32,6.55.32,6.55,2.71-8.68,6.49-13.82c3.22-4.38,5.52-6.41,11.36-8.7s5.77-2.11,5.77-2.11Z" fill="url(#r)"/>
      <g>
        <path d="M109.92,207.86a22.26,22.26,0,0,0,4.47-.12,110.43,110.43,0,0,0,18.83-2.18c37.22-8.29,86.53-65.38,67.66-96-2.15-3.49-1.14-8.4,4.17-10.07a53.13,53.13,0,0,0,5.76-2.31,8.86,8.86,0,0,0,5.44-5.89c1.13-3.83,1.45-8.27-1.21-12.07-1.68-2.4-2.73-2.86-5.47-4.12-2.27-1-4.7-1.51-7-2.49-0.23-.1-0.44-0.21-0.65-0.32-1,7.38-6.39,9.35-15.65,11.58a27.32,27.32,0,0,1-1,4c-0.48,1.41-1,2.79-1.57,4.19-0.43,1.14-.65,2.39-1.16,3.49-1.38,3-4.79,4.85-7.68,6.45s-6.45,3-9,5.22a31.06,31.06,0,0,0-5.65,6.81,44.28,44.28,0,0,0-6.35,16c-1.07,5.82-2.12,11.66-3.39,17.42-1,4.7-2.17,8.86-5,12.77a71.78,71.78,0,0,1-6.48,7.58c-1.82,1.87-3.9,3.54-5.65,5.48a35.56,35.56,0,0,0-3.52,4.94c-1.82,2.89-3.82,5.68-5.53,8.64-1.88,3.25-3.73,7-4,10.86a5.39,5.39,0,0,0-4.3,1.08c-0.88.61-2.59,1.93-2,3.25-1.13.31-2.29,0.56-3.39,0.92a3,3,0,0,0-2.3,2.53,6.53,6.53,0,0,0,1.16,2.28A2.22,2.22,0,0,0,109.92,207.86ZM201.42,82.13a2.88,2.88,0,0,1,3.3-2.17,2.64,2.64,0,0,1,2.54,2.84A2.88,2.88,0,0,1,204,85,2.64,2.64,0,0,1,201.42,82.13Z" fill="url(#s)"/>
        <path d="M201.18,71.86c-2.94-2.24-4.37-5.53-5.44-8.77a58,58,0,0,1-2.12-8.57c-6.17-1.32-10,5.2-9.83,9.43s1.66,8.49,2.7,12.7c0.51,2.07.06,4.43-.15,6.45C195.36,80.89,200.38,79,201.18,71.86Z" fill="url(#t)"/>
      </g>
      <g>
        <path d="M175.54,169.58c-2.17,1.4-2.23-1.29-2-3.46-0.62,3-2,7.92-4.57,7.81-1.83-.08-2-1.73-1.76-3.37-0.93,2.46-2.49,5.4-4.66,5.63h0c-0.65,3.72-.83,7.27.55,8.26s3.37-3.19,5-8.12c-0.48,3.06-.39,5.56,1,5.92,2.38,0.6,5.06-6.84,6.87-13A4.44,4.44,0,0,1,175.54,169.58Z" fill="url(#u)"/>
        <path d="M155.62,187.51c2.15,0.55,4.68-5.49,6.59-11.31-1.48-.1-1.42-1.94-1-3.86-1.36,3.36-3.4,7.27-5.23,6.33a2,2,0,0,1-.29-0.19C154.43,182.81,153.72,187,155.62,187.51Z" fill="url(#v)"/>
        <path d="M181.12,164.53c-0.88.82-1.46,0.77-1.85,0.31a5.63,5.63,0,0,1-.74-2.93c0,1.72-.33,5-2.07,6.89-0.36,2.94-.13,5.41,1.95,4.47,4.53-2.05,6.26-16.41,6.26-16.41h-0.18C183.07,160.94,181.82,163.88,181.12,164.53Z" fill="url(#w)"/>
        <path d="M151.07,181.39c1.13-.27,2.66-3,3.92-5.74-0.21,1.29,0,2.46,1,3,1.83,0.94,3.87-3,5.23-6.33-0.5,2.07-.53,4.06,1.33,3.86,2.17-.23,3.73-3.17,4.66-5.63-0.27,1.65-.07,3.29,1.76,3.37,2.56,0.11,4-4.77,4.57-7.81-0.25,2.17-.19,4.86,2,3.46,2.55-1.64,2.94-5.68,3-7.66a5.63,5.63,0,0,0,.74,2.93c0.39,0.45,1,.5,1.85-0.31,2.84-2.64,14.72-42.81,9.3-45.59-5.65-2.9-18.44,10.49-28.58,29.91-4.18,8-13.51,29.91-11.49,32.29A0.68,0.68,0,0,0,151.07,181.39Z" fill="url(#x)"/>
      </g>
    </g>
  </g>
</svg>
