<svg xmlns="http://www.w3.org/2000/svg" xmlns:xlink="http://www.w3.org/1999/xlink" viewBox="0 0 226.06 229.7">
  <defs>
    <linearGradient id="a" x1="115.75" y1="19.77" x2="113.02" y2="12.27" gradientTransform="matrix(0.98, -0.22, 0.22, 0.98, 42.88, 52.59)" gradientUnits="userSpaceOnUse">
      <stop offset="0" stop-color="#b22890"/>
      <stop offset="0.47" stop-color="#b0288f"/>
      <stop offset="0.65" stop-color="#a9268b"/>
      <stop offset="0.76" stop-color="#9e2384"/>
    </linearGradient>
    <radialGradient id="b" cx="12.3" cy="-18.6" r="111.68" gradientTransform="matrix(1.02, -0.23, 0.24, 1.05, 30.49, 56.53)" gradientUnits="userSpaceOnUse">
      <stop offset="0" stop-color="#ec1a8e"/>
      <stop offset="0.24" stop-color="#cb1e8c"/>
      <stop offset="0.77" stop-color="#772989"/>
      <stop offset="1" stop-color="#512e87"/>
    </radialGradient>
    <linearGradient id="c" x1="113.91" y1="27.74" x2="104.83" y2="2.77" gradientTransform="matrix(0.98, -0.22, 0.22, 0.98, 42.88, 52.59)" gradientUnits="userSpaceOnUse">
      <stop offset="0" stop-color="#ec1a8e"/>
      <stop offset="0.47" stop-color="#ea1a8e"/>
      <stop offset="0.64" stop-color="#e31b8d"/>
      <stop offset="0.76" stop-color="#d81c8b"/>
      <stop offset="0.86" stop-color="#c71e89"/>
      <stop offset="0.95" stop-color="#b12186"/>
      <stop offset="1" stop-color="#9e2384"/>
    </linearGradient>
    <radialGradient id="d" cx="-16.37" cy="-2.56" r="20.48" gradientTransform="matrix(1.02, -0.23, 0.24, 1.05, 30.49, 56.53)" gradientUnits="userSpaceOnUse">
      <stop offset="0" stop-color="#bb2790"/>
      <stop offset="0.22" stop-color="#b6278f"/>
      <stop offset="0.5" stop-color="#a6288d"/>
      <stop offset="0.81" stop-color="#8c2889"/>
      <stop offset="1" stop-color="#792986"/>
    </radialGradient>
    <radialGradient id="e" cx="99.89" cy="-29.64" r="14.09" gradientTransform="matrix(1.02, -0.23, 0.21, 0.92, 29.63, 52.75)" gradientUnits="userSpaceOnUse">
      <stop offset="0.09" stop-color="#e31c8e"/>
      <stop offset="1" stop-color="#962584"/>
    </radialGradient>
    <radialGradient id="f" cx="107.49" cy="-18.75" r="8.57" gradientTransform="matrix(1.02, -0.23, 0.21, 0.92, 29.95, 54.14)" xlink:href="#e"/>
    <radialGradient id="g" cx="85.7" cy="-31.92" r="9.43" gradientTransform="matrix(1.02, -0.23, 0.21, 0.92, 29.57, 52.45)" xlink:href="#e"/>
    <radialGradient id="h" cx="75.78" cy="-19.73" r="52.44" gradientTransform="matrix(1.03, -0.18, 0.14, 0.77, 26.32, 40.79)" gradientUnits="userSpaceOnUse">
      <stop offset="0" stop-color="#e31c8e"/>
      <stop offset="0.25" stop-color="#e01c8e"/>
      <stop offset="0.44" stop-color="#d61d8c"/>
      <stop offset="0.6" stop-color="#c61f8a"/>
      <stop offset="0.76" stop-color="#b02287"/>
      <stop offset="0.89" stop-color="#962584"/>
    </radialGradient>
    <linearGradient id="i" x1="270.4" y1="11.97" x2="267.75" y2="4.69" gradientTransform="translate(199.35 309.14) rotate(-132.83)" xlink:href="#a"/>
    <radialGradient id="j" cx="154.76" cy="-12.1" r="111.68" gradientTransform="matrix(-0.7, -0.74, 0.82, -0.74, 191.79, 317.54)" xlink:href="#b"/>
    <linearGradient id="k" x1="268.72" y1="19.94" x2="259.7" y2="-4.86" gradientTransform="translate(199.35 309.14) rotate(-132.83)" xlink:href="#c"/>
    <radialGradient id="l" cx="126.09" cy="3.95" r="20.48" gradientTransform="matrix(-0.7, -0.74, 0.82, -0.74, 191.79, 317.54)" xlink:href="#d"/>
    <radialGradient id="m" cx="242.35" cy="-23.14" r="14.09" gradientTransform="matrix(-0.7, -0.74, 0.72, -0.65, 189.49, 319.62)" xlink:href="#e"/>
    <radialGradient id="n" cx="249.95" cy="-12.24" r="8.57" gradientTransform="matrix(-0.7, -0.74, 0.72, -0.65, 190.57, 318.64)" xlink:href="#e"/>
    <radialGradient id="o" cx="228.16" cy="-25.42" r="9.43" gradientTransform="matrix(-0.7, -0.74, 0.72, -0.65, 189.26, 319.82)" xlink:href="#e"/>
    <radialGradient id="p" cx="218.39" cy="-20.51" r="52.44" gradientTransform="matrix(-0.66, -0.78, 0.62, -0.51, 179.85, 329.15)" xlink:href="#h"/>
    <linearGradient id="q" x1="196.48" y1="151.46" x2="193.69" y2="143.79" gradientTransform="matrix(-0.3, 0.96, -0.96, -0.3, 343.29, 45.36)" xlink:href="#a"/>
    <radialGradient id="r" cx="77.58" cy="101.4" r="111.68" gradientTransform="matrix(-0.32, 0.98, -1.05, -0.31, 344.89, 47.15)" xlink:href="#b"/>
    <linearGradient id="s" x1="194.81" y1="159.55" x2="185.5" y2="133.98" gradientTransform="matrix(-0.3, 0.96, -0.96, -0.3, 343.29, 45.36)" xlink:href="#c"/>
    <radialGradient id="t" cx="48.9" cy="117.45" r="20.48" gradientTransform="matrix(-0.32, 0.98, -1.05, -0.31, 344.89, 47.15)" xlink:href="#d"/>
    <radialGradient id="u" cx="165.17" cy="90.36" r="14.09" gradientTransform="matrix(-0.32, 0.98, -0.92, -0.27, 333.32, 43.74)" xlink:href="#e"/>
    <radialGradient id="v" cx="172.77" cy="101.25" r="8.57" gradientTransform="matrix(-0.32, 0.98, -0.92, -0.27, 331.92, 43.33)" xlink:href="#e"/>
    <radialGradient id="w" cx="150.97" cy="88.08" r="9.43" gradientTransform="matrix(-0.32, 0.98, -0.92, -0.27, 333.61, 43.83)" xlink:href="#e"/>
    <radialGradient id="x" cx="146.92" cy="140.06" r="52.44" gradientTransform="matrix(-0.37, 0.96, -0.76, -0.26, 361, 51.28)" xlink:href="#h"/>
  </defs>
  <title>logo</title>
  <g>
    <path d="M155,45.15l0.48,0q0.65,0,1.33-.11l1.13-.14,1.17-.18,1.42-.27,0.91-.19c1-.22,1.93-0.46,2.82-0.71a13.09,13.09,0,0,1,3.3-3.27l0,0c-3.23,2.15-7.31,3-11,3.54-2.85.41-5.74,0.58-8.62,0.84A24.67,24.67,0,0,0,155,45.15Z" fill="url(#a)"/>
    <path d="M181.77,42a22.26,22.26,0,0,0-2.85-3.45,141,141,0,0,0-13.34-13.46C151.11,12.37,134.14,2.61,116.27.45,95.53-2.05,75.55,6.06,59.59,19.67A94.86,94.86,0,0,0,48.31,31.2c-2.63,3.15-6.61,6.94-10.5,2.94-1.75-1.8-3.07-3.76-5.21-5a8.86,8.86,0,0,0-8-.64c-3.71,1.48-7.4,4-8.74,8.4a16.65,16.65,0,0,0,0,8.74c0.58,2.43,1.71,4.63,2.35,7,0.06,0.24.1,0.48,0.15,0.71,6.39-3.8,11.3-.75,18.78,5.15a27.32,27.32,0,0,1,3.81-1.67c1.41-.5,2.84-0.9,4.27-1.35,1.16-.37,2.29-1,3.46-1.24,3.19-.75,6.77.77,9.81,2.05,3.2,1.35,6.33,3.24,9.68,3.88a31.06,31.06,0,0,0,8.85.24,44.28,44.28,0,0,0,16.51-4.9C98.76,52.8,104,50,109.32,47.46c4.34-2.09,8.31-3.77,13.15-3.93a71.78,71.78,0,0,1,10,.41c2.6,0.28,5.19.88,7.8,1.06a35.56,35.56,0,0,0,6.05-.28c3.4-.35,6.83-0.5,10.21-1,3.72-.53,7.8-1.38,11-3.54a5.39,5.39,0,0,0,3.5,2.71c1,0.31,3.11.84,3.8-.43,0.94,0.7,1.86,1.46,2.82,2.09a3,3,0,0,0,3.41.24,6.53,6.53,0,0,0,1.07-2.32A2.22,2.22,0,0,0,181.77,42ZM26.37,47.74a2.88,2.88,0,0,1-3.74-1.25,2.64,2.64,0,0,1,.66-3.75A2.88,2.88,0,0,1,27,44,2.64,2.64,0,0,1,26.37,47.74Z" fill="url(#b)"/>
    <path d="M133.13,40.25s10.28,6.91,18.27,8.24,17.38,0.22,17.44.21h0s-4-1.2-3.94-2.69,5-4.3,5-4.3-8.5,3.23-14.87,3.43c-5.44.17-8.45-.39-13.86-3.56s-5.23-3.24-5.23-3.24Z" fill="url(#c)"/>
    <path d="M18.45,54.28c0.06,3.7-1.65,6.85-3.54,9.7a58,58,0,0,1-5.43,7C12.25,76.6,19.73,75.57,23,72.84s5.65-6.55,8.32-10c1.31-1.68,3.45-2.79,5.16-3.86C29.14,53.28,24.6,50.47,18.45,54.28Z" fill="url(#d)"/>
    <path d="M116.5,9.27c2.44,0.84.36,2.55-1.5,3.69,2.77-1.39,7.47-3.32,9-1.23,1.07,1.49-.11,2.66-1.57,3.46,2.51-.78,5.78-1.37,7.31.19l0,0c3.33-1.79,6.23-3.84,6.16-5.54s-4.59-.69-9.49,1.07c2.7-1.51,4.61-3.12,4-4.48-1-2.24-8.51.24-14.49,2.65A4.44,4.44,0,0,1,116.5,9.27Z" fill="url(#e)"/>
    <path d="M142.91,13.87c-0.89-2-7.2-.29-13,1.81,0.83,1.22-.65,2.32-2.45,3.14,3.48-1,7.82-1.82,8.21.2a2,2,0,0,1,0,.34C139.95,17.7,143.7,15.67,142.91,13.87Z" fill="url(#f)"/>
    <path d="M109.09,8c1.18,0.19,1.51.68,1.39,1.26a5.63,5.63,0,0,1-1.84,2.39c1.37-1,4.12-2.81,6.7-2.63,2.54-1.54,4.34-3.24,2.31-4.29C113.23,2.45,100.88,10,100.88,10l0.1,0.15C105.06,8.69,108.14,7.86,109.09,8Z" fill="url(#g)"/>
    <path d="M140.91,21.22c-0.91-.72-4-0.22-6.94.46,1.15-.63,2-1.49,1.73-2.67-0.39-2-4.72-1.21-8.21-.2,1.94-.88,3.52-2.09,2.21-3.43-1.53-1.56-4.8-1-7.31-.19,1.46-.8,2.63-2,1.57-3.46-1.49-2.09-6.2-.16-9,1.23,1.86-1.14,3.94-2.85,1.5-3.69-2.87-1-6.29,1.2-7.86,2.39a5.63,5.63,0,0,0,1.84-2.39c0.12-.59-0.21-1.08-1.39-1.26-3.83-.61-42.76,14.86-41.6,20.84,1.21,6.23,19.64,8,41.18,4,8.89-1.66,31.86-7.85,32.49-10.9A0.68,0.68,0,0,0,140.91,21.22Z" fill="url(#h)"/>
    <path d="M26,107.52l-0.26-.39q-0.35-.54-0.74-1.07c-0.22-.3-0.44-0.59-0.67-0.88s-0.48-.6-0.73-0.89-0.62-.72-0.93-1.07l-0.62-.67c-0.67-.72-1.35-1.39-2-2a13.07,13.07,0,0,1-4.51-1.11l0,0c3.48,1.63,6.22,4.63,8.5,7.51,1.75,2.2,3.31,4.55,4.94,6.85A23,23,0,0,0,26,107.52Z" fill="url(#i)"/>
    <path d="M10.26,86.46a22.69,22.69,0,0,0-1.67,4.18,141.81,141.81,0,0,0-5.45,18.19c-4.3,18.78-4.69,38.15,2.08,54.36C13.09,182,30,194.74,49.85,201.25a94.84,94.84,0,0,0,15.72,3.61c4.07,0.6,9.37,2,7.72,7.36-0.74,2.4-1.84,4.52-1.9,7a8.28,8.28,0,0,0,3.32,7.08c3.12,2.38,7.12,4.22,11.71,3.08a17.91,17.91,0,0,0,7.76-4.47c1.87-1.74,3.27-3.83,5.09-5.6,0.18-.18.37-0.33,0.56-0.49-6.48-3.45-6.16-9.17-4.56-18.52a25.94,25.94,0,0,1-3.34-2.36C90.81,197,89.75,196,88.66,195c-0.89-.79-2-1.44-2.79-2.29-2.22-2.31-2.61-6.12-3-9.35-0.36-3.4-.21-7-1.27-10.18a28.86,28.86,0,0,0-4.09-7.6,41.58,41.58,0,0,0-12.38-11.45c-5-3-10-6-14.87-9.2-4-2.6-7.38-5.09-9.88-9.1A66.68,66.68,0,0,1,36,127.2c-1-2.34-1.74-4.84-2.86-7.13a33,33,0,0,0-3.2-5c-2-2.69-3.77-5.52-5.84-8.13-2.28-2.87-5-5.88-8.5-7.51a5.31,5.31,0,0,0,.7-4.36c-0.22-1-.77-3.07-2.23-3,0.16-1.15.39-2.32,0.49-3.46a2.77,2.77,0,0,0-1.44-3,6.84,6.84,0,0,0-2.58.28A2.27,2.27,0,0,0,10.26,86.46ZM90.92,214.92a2.75,2.75,0,0,1,.71,3.81A2.79,2.79,0,0,1,88,220.1a2.75,2.75,0,0,1-.71-3.81A2.79,2.79,0,0,1,90.92,214.92Z" fill="url(#j)"/>
    <path d="M32.33,128.5s1.13-12.24-1.58-19.68S22.49,94,22.46,94h0s0.9,4-.47,4.71-6.23-2-6.23-2,7,5.52,10.28,10.81c2.8,4.51,3.77,7.34,3.58,13.55s-0.33,6.08-.33,6.08Z" fill="url(#k)"/>
    <path d="M100.57,218.27c3.25-1.95,6.88-2.12,10.32-2a59,59,0,0,1,8.82,1c3.67-5.25-.88-11-4.87-12.38S106.29,203.5,102,203c-2.13-.25-4.15-1.48-5.94-2.38C94.48,209.74,94.2,215,100.57,218.27Z" fill="url(#l)"/>
    <path d="M12.93,158.47c-0.44-2.5,2.08-1.61,4-.63-2.58-1.63-6.58-4.61-5.45-6.95,0.8-1.67,2.41-1.28,3.84-.46-1.92-1.72-4-4.18-3.39-6.27v0c-3.21-1.9-6.43-3.3-7.91-2.36S5.66,146,9.6,149.25c-2.66-1.51-5-2.3-5.92-1.09-1.5,2,4.35,7.07,9.4,10.89A4.17,4.17,0,0,1,12.93,158.47Z" fill="url(#m)"/>
    <path d="M4.16,133.78c-1.37,1.8,3.25,6.24,7.91,10,0.68-1.33,2.37-.64,4,0.46-2.59-2.43-5.42-5.68-3.81-7a2.17,2.17,0,0,1,.29-0.2C9,134.32,5.37,132.19,4.16,133.78Z" fill="url(#n)"/>
    <path d="M15.42,165.39c-0.41-1.1-.13-1.62.45-1.82a5.73,5.73,0,0,1,3,.33c-1.59-.62-4.5-2-5.59-4.32-2.6-1.36-5-2-4.93.25,0.11,4.91,12.79,11.5,12.79,11.5l0.08-.16C18,168.44,15.75,166.26,15.42,165.39Z" fill="url(#o)"/>
    <path d="M11.66,131.7c-0.19,1.14,1.76,3.52,3.78,5.63-1.12-.65-2.28-0.89-3.21-0.1-1.61,1.37,1.23,4.61,3.81,7-1.73-1.19-3.57-1.9-4.12-.11-0.64,2.09,1.47,4.56,3.39,6.27-1.42-.82-3-1.21-3.84.46-1.12,2.33,2.87,5.32,5.45,6.95-1.92-1-4.45-1.87-4,.63,0.52,2.93,4.12,4.7,6,5.42a5.73,5.73,0,0,0-3-.33c-0.58.2-.86,0.73-0.45,1.82,1.33,3.55,34,28.52,38.73,24.47,4.94-4.22-2.44-20.73-16.49-36.87-5.8-6.66-22.47-22.91-25.48-21.87A0.72,0.72,0,0,0,11.66,131.7Z" fill="url(#p)"/>
    <path d="M144.12,184.51l-0.22.42q-0.3.57-.59,1.18c-0.16.34-.31,0.68-0.46,1s-0.3.71-.44,1.08-0.33.89-.49,1.34c-0.1.29-.2,0.58-0.29,0.86-0.31.94-.58,1.86-0.82,2.73a12.27,12.27,0,0,1,1.21,4.38h0c-0.25-3.78,1.08-7.64,2.52-11,1.1-2.61,2.43-5.14,3.68-7.69A24.16,24.16,0,0,0,144.12,184.51Z" fill="url(#q)"/>
    <path d="M133.11,208.67a23.91,23.91,0,0,0,4.52-.74,150.7,150.7,0,0,0,18.79-4.73c18.76-6,36.13-15.62,47.22-29.67,12.87-16.32,15.93-37.16,12-57.27a88.89,88.89,0,0,0-4.44-15.15c-1.45-3.75-2.76-9,2.78-10.31,2.49-.6,4.91-0.76,7.11-2a8.68,8.68,0,0,0,4.67-6.44c0.59-3.86.28-8.19-3-11.48a17.23,17.23,0,0,0-7.74-4.27c-2.46-.69-5-0.8-7.44-1.43-0.25-.06-0.47-0.15-0.71-0.22,0.09,7.26-5.14,9.92-14.21,13.37a25.43,25.43,0,0,1-.47,4c-0.28,1.43-.66,2.84-1,4.26C191,87.81,191,89,190.6,90.18c-1,3.06-4.16,5.35-6.86,7.3s-6.12,3.78-8.41,6.3a30.18,30.18,0,0,0-4.76,7.36,41.56,41.56,0,0,0-4.13,16.34c-0.24,5.77-.47,11.55-0.93,17.3-0.38,4.69-.92,8.86-3.27,13a69.88,69.88,0,0,1-5.48,8.22c-1.58,2.06-3.45,4-4.94,6.08a34.2,34.2,0,0,0-2.86,5.26c-1.43,3-3.06,6-4.37,9.11-1.44,3.4-2.77,7.26-2.52,11a5.68,5.68,0,0,0-4.21,1.64c-0.8.71-2.35,2.22-1.57,3.42-1.1.45-2.25,0.86-3.31,1.37a2.9,2.9,0,0,0-2,2.77,6.36,6.36,0,0,0,1.51,2A2.38,2.38,0,0,0,133.11,208.67ZM207.85,74.51a2.91,2.91,0,0,1,3-2.56,2.66,2.66,0,0,1,3,2.39,2.91,2.91,0,0,1-3,2.56A2.66,2.66,0,0,1,207.85,74.51Z" fill="url(#r)"/>
    <path d="M159.68,168.42s-11.41,5.33-16.69,11.44a70.38,70.38,0,0,0-9.14,14.64h0s3.14-2.82,4.41-2,1.27,6.28,1.27,6.28,1.5-8.75,4.59-14.24c2.64-4.68,4.68-7,10.28-10s5.56-2.85,5.56-2.85Z" fill="url(#s)"/>
    <path d="M206.12,64.63c-3.31-1.75-5.23-4.73-6.79-7.71a54.9,54.9,0,0,1-3.39-8c-6.45-.41-9.38,6.41-8.62,10.47s2.91,8,4.57,11.88c0.81,1.93.7,4.27,0.78,6.24C201.52,74.16,206.34,71.68,206.12,64.63Z" fill="url(#t)"/>
    <path d="M195.7,169.43c-2,1.66-2.45-.93-2.5-3.06-0.19,3-.89,7.93-3.51,8.18-1.87.18-2.31-1.38-2.27-3-0.59,2.5-1.75,5.56-3.92,6.09h0c-0.13,3.69.21,7.13,1.75,7.9s3-3.55,3.92-8.54c0,3,.4,5.42,1.91,5.57,2.5,0.25,4.15-7.31,5.09-13.54A4.46,4.46,0,0,1,195.7,169.43Z" fill="url(#u)"/>
    <path d="M178.07,189.52c2.26,0.23,4-6,5.05-11.84-1.51.11-1.72-1.68-1.53-3.6-0.9,3.44-2.4,7.5-4.39,6.84a2.11,2.11,0,0,1-.32-0.14C176.19,185.15,176.07,189.32,178.07,189.52Z" fill="url(#v)"/>
    <path d="M200.63,163.78c-0.77.91-1.37,0.94-1.84,0.56a5.34,5.34,0,0,1-1.18-2.72c0.22,1.66.38,4.86-1.11,6.94,0.06,2.89.65,5.24,2.62,4,4.3-2.62,4-16.72,4-16.72h-0.18C202.1,160,201.25,163.05,200.63,163.78Z" fill="url(#w)"/>
    <path d="M172.57,184.25c1.11-.42,2.27-3.29,3.15-6.09,0,1.28.32,2.38,1.48,2.76,2,0.66,3.5-3.41,4.39-6.84-0.21,2.07,0,4,1.9,3.54,2.17-.53,3.33-3.58,3.92-6.09,0,1.63.4,3.19,2.27,3,2.62-.25,3.32-5.16,3.51-8.18,0.06,2.13.5,4.72,2.5,3.06,2.35-1.94,2.16-5.9,1.91-7.81a5.34,5.34,0,0,0,1.18,2.72c0.46,0.38,1.06.35,1.84-.56,2.51-2.94,8.77-43.38,2.86-45.31-6.15-2-17.2,12.71-24.69,32.87-3.09,8.32-9.4,30.76-7,32.78A0.73,0.73,0,0,0,172.57,184.25Z" fill="url(#x)"/>
  </g>
</svg>
