<svg xmlns="http://www.w3.org/2000/svg" xmlns:xlink="http://www.w3.org/1999/xlink" viewBox="0 0 242.59 245.86">
  <defs>
    <linearGradient id="a" x1="124.01" y1="27.85" x2="121.28" y2="20.35" gradientTransform="matrix(0.98, -0.22, 0.22, 0.98, 41.29, 54.63)" gradientUnits="userSpaceOnUse">
      <stop offset="0" stop-color="#b22890"/>
      <stop offset="0.47" stop-color="#b0288f"/>
      <stop offset="0.65" stop-color="#a9268b"/>
      <stop offset="0.76" stop-color="#9e2384"/>
    </linearGradient>
    <radialGradient id="b" cx="20.56" cy="-10.53" r="111.68" gradientTransform="matrix(1.02, -0.23, 0.24, 1.05, 28.4, 58.07)" gradientUnits="userSpaceOnUse">
      <stop offset="0" stop-color="#ec1a8e"/>
      <stop offset="0.24" stop-color="#cb1e8c"/>
      <stop offset="0.77" stop-color="#772989"/>
      <stop offset="1" stop-color="#512e87"/>
    </radialGradient>
    <linearGradient id="c" x1="122.17" y1="35.82" x2="113.08" y2="10.85" gradientTransform="matrix(0.98, -0.22, 0.22, 0.98, 41.29, 54.63)" gradientUnits="userSpaceOnUse">
      <stop offset="0" stop-color="#ec1a8e"/>
      <stop offset="0.47" stop-color="#ea1a8e"/>
      <stop offset="0.64" stop-color="#e31b8d"/>
      <stop offset="0.76" stop-color="#d81c8b"/>
      <stop offset="0.86" stop-color="#c71e89"/>
      <stop offset="0.95" stop-color="#b12186"/>
      <stop offset="1" stop-color="#9e2384"/>
    </linearGradient>
    <radialGradient id="d" cx="-8.11" cy="5.52" r="20.48" gradientTransform="matrix(1.02, -0.23, 0.24, 1.05, 28.4, 58.07)" gradientUnits="userSpaceOnUse">
      <stop offset="0" stop-color="#bb2790"/>
      <stop offset="0.22" stop-color="#b6278f"/>
      <stop offset="0.5" stop-color="#a6288d"/>
      <stop offset="0.81" stop-color="#8c2889"/>
      <stop offset="1" stop-color="#792986"/>
    </radialGradient>
    <radialGradient id="e" cx="108.15" cy="-21.56" r="14.09" gradientTransform="matrix(1.02, -0.23, 0.21, 0.92, 27.78, 55.31)" gradientUnits="userSpaceOnUse">
      <stop offset="0.09" stop-color="#e31c8e"/>
      <stop offset="1" stop-color="#962584"/>
    </radialGradient>
    <radialGradient id="f" cx="115.75" cy="-10.67" r="8.57" gradientTransform="matrix(1.02, -0.23, 0.21, 0.92, 28.1, 56.71)" xlink:href="#e"/>
    <radialGradient id="g" cx="93.96" cy="-23.85" r="9.43" gradientTransform="matrix(1.02, -0.23, 0.21, 0.92, 27.72, 55.02)" xlink:href="#e"/>
    <radialGradient id="h" cx="84.04" cy="-11.66" r="52.44" gradientTransform="matrix(1.03, -0.18, 0.14, 0.77, 24.96, 44.13)" gradientUnits="userSpaceOnUse">
      <stop offset="0" stop-color="#e31c8e"/>
      <stop offset="0.25" stop-color="#e01c8e"/>
      <stop offset="0.44" stop-color="#d61d8c"/>
      <stop offset="0.6" stop-color="#c61f8a"/>
      <stop offset="0.76" stop-color="#b02287"/>
      <stop offset="0.89" stop-color="#962584"/>
    </radialGradient>
    <linearGradient id="i" x1="278.66" y1="20.05" x2="276" y2="12.76" gradientTransform="translate(207.29 328.76) rotate(-132.83)" xlink:href="#a"/>
    <radialGradient id="j" cx="163.02" cy="-4.02" r="111.68" gradientTransform="matrix(-0.7, -0.74, 0.82, -0.74, 199.27, 337.72)" xlink:href="#b"/>
    <linearGradient id="k" x1="276.98" y1="28.02" x2="267.95" y2="3.22" gradientTransform="translate(207.29 328.76) rotate(-132.83)" xlink:href="#c"/>
    <radialGradient id="l" cx="134.34" cy="12.02" r="20.48" gradientTransform="matrix(-0.7, -0.74, 0.82, -0.74, 199.27, 337.72)" xlink:href="#d"/>
    <radialGradient id="m" cx="250.61" cy="-15.06" r="14.09" gradientTransform="matrix(-0.7, -0.74, 0.72, -0.65, 197.78, 339.07)" xlink:href="#e"/>
    <radialGradient id="n" cx="258.21" cy="-4.17" r="8.57" gradientTransform="matrix(-0.7, -0.74, 0.72, -0.65, 198.86, 338.09)" xlink:href="#e"/>
    <radialGradient id="o" cx="236.41" cy="-17.34" r="9.43" gradientTransform="matrix(-0.7, -0.74, 0.72, -0.65, 197.55, 339.28)" xlink:href="#e"/>
    <radialGradient id="p" cx="226.64" cy="-12.43" r="52.44" gradientTransform="matrix(-0.66, -0.78, 0.62, -0.51, 188.58, 347.79)" xlink:href="#h"/>
    <linearGradient id="q" x1="204.73" y1="159.53" x2="201.94" y2="151.87" gradientTransform="translate(361.7 47.93) rotate(107.17)" xlink:href="#a"/>
    <radialGradient id="r" cx="85.83" cy="109.48" r="111.68" gradientTransform="matrix(-0.32, 0.98, -1.05, -0.31, 364.26, 49.67)" xlink:href="#b"/>
    <linearGradient id="s" x1="203.06" y1="167.62" x2="193.76" y2="142.06" gradientTransform="translate(361.7 47.93) rotate(107.17)" xlink:href="#c"/>
    <radialGradient id="t" cx="57.16" cy="125.52" r="20.48" gradientTransform="matrix(-0.32, 0.98, -1.05, -0.31, 364.26, 49.67)" xlink:href="#d"/>
    <radialGradient id="u" cx="173.42" cy="98.44" r="14.09" gradientTransform="matrix(-0.32, 0.98, -0.92, -0.27, 351.65, 45.95)" xlink:href="#e"/>
    <radialGradient id="v" cx="181.02" cy="109.33" r="8.57" gradientTransform="matrix(-0.32, 0.98, -0.92, -0.27, 350.26, 45.54)" xlink:href="#e"/>
    <radialGradient id="w" cx="159.23" cy="96.16" r="9.43" gradientTransform="matrix(-0.32, 0.98, -0.92, -0.27, 351.95, 46.04)" xlink:href="#e"/>
    <radialGradient id="x" cx="155.18" cy="148.14" r="52.44" gradientTransform="matrix(-0.37, 0.96, -0.76, -0.26, 378.4, 53.54)" xlink:href="#h"/>
  </defs>
  <title>logo-diecut</title>
  <g>
    <path d="M237.11,73.34a25.17,25.17,0,0,0-11.35-6.39,40.5,40.5,0,0,0-4.92-1c-1-.15-1.86-0.29-2.61-0.47-1.07-.63-2-1.88-3.27-4.25a47,47,0,0,1-2.9-6.84A8.08,8.08,0,0,0,204.87,49a16.5,16.5,0,0,0-4.74.37c-0.52.12-1,.27-1.5,0.43h0a8,8,0,0,0-1.78-4.37,23,23,0,0,0-2.7-3.31c-0.22-.23-0.43-0.45-0.61-0.67a149.37,149.37,0,0,0-14.1-14.22C162.12,11.89,143.53,2.67,125.67.51A72.76,72.76,0,0,0,100.59,1.9C87.24,5,74,11.81,62.46,21.7A102.63,102.63,0,0,0,50.18,34.24l-0.1.12a20.51,20.51,0,0,0-4.91-4.1,17.2,17.2,0,0,0-12.66-2,18.17,18.17,0,0,0-2.65.83C20.92,32.67,17.5,38.52,16.2,42.81A24.36,24.36,0,0,0,16,55.69a37.79,37.79,0,0,0,1.52,4.66c0.34,0.89.65,1.73,0.85,2.45,0,1.23-.68,2.68-2.18,4.95a49.84,49.84,0,0,1-4.66,6,8,8,0,0,0-1.32,8.89A15,15,0,0,0,14,87.44l-0.06,0a8.49,8.49,0,0,0-3,3.72,23.4,23.4,0,0,0-1.63,4c-0.1.3-.19,0.59-0.3,0.87a150.4,150.4,0,0,0-5.76,19.22C-1.83,137.76-1,158.22,5.8,174.42,14,194.1,31.63,209.21,55.36,217a102.64,102.64,0,0,0,17.1,3.94l0.15,0a20.34,20.34,0,0,0-1.24,6.26,16.12,16.12,0,0,0,6.43,13.54c7.35,5.61,14.08,5.6,18.44,4.6l0.36-.09a26.22,26.22,0,0,0,11.5-6.48,40.23,40.23,0,0,0,3.4-3.68c0.62-.73,1.2-1.42,1.75-2a5,5,0,0,1,1.28-.48,17,17,0,0,1,4.17-.23,50.63,50.63,0,0,1,7.56.88,8.49,8.49,0,0,0,8.53-3.44,15.5,15.5,0,0,0,2.48-5.67h0a8.58,8.58,0,0,0,4.81.61,24.75,24.75,0,0,0,4.28-.66l0.91-.19c2.23-.41,4.49-0.88,6.73-1.39,4.37-1,8.79-2.22,13.13-3.61,22.46-7.2,40.19-18.43,51.28-32.48,13.45-17.05,18.3-39.69,13.66-63.76a96.27,96.27,0,0,0-4.82-16.48l-0.05-.14,0.65-.14a21.17,21.17,0,0,0,5.51-2,16.9,16.9,0,0,0,8.88-12.39C243.68,82.26,240.25,76.52,237.11,73.34Z" transform="translate(0 0)" fill="#fff"/>
    <path d="M163.23,53.22l0.48,0q0.65,0,1.33-.11l1.13-.14,1.17-.18,1.42-.27,0.91-.19c1-.22,1.93-0.46,2.82-0.71a13.09,13.09,0,0,1,3.3-3.27l0,0c-3.23,2.15-7.31,3-11,3.54-2.85.41-5.74,0.58-8.62,0.84A24.67,24.67,0,0,0,163.23,53.22Z" transform="translate(0 0)" fill="url(#a)"/>
    <path d="M190,50.13a22.26,22.26,0,0,0-2.85-3.45,141,141,0,0,0-13.34-13.46c-14.46-12.77-31.44-22.53-49.3-24.69C103.79,6,83.81,14.14,67.85,27.75A94.86,94.86,0,0,0,56.57,39.28c-2.63,3.15-6.61,6.94-10.5,2.94-1.75-1.8-3.07-3.76-5.21-5a8.86,8.86,0,0,0-8-.64c-3.71,1.48-7.4,4-8.74,8.4a16.65,16.65,0,0,0,0,8.74c0.58,2.43,1.71,4.63,2.35,7,0.06,0.24.1,0.48,0.15,0.71,6.39-3.8,11.3-.75,18.78,5.15a27.32,27.32,0,0,1,3.81-1.67c1.41-.5,2.84-0.9,4.27-1.35,1.16-.37,2.29-1,3.46-1.24,3.19-.75,6.77.77,9.81,2.05,3.2,1.35,6.33,3.24,9.68,3.88a31.06,31.06,0,0,0,8.85.24,44.28,44.28,0,0,0,16.51-4.9c5.24-2.76,10.47-5.53,15.8-8.09,4.34-2.09,8.31-3.77,13.15-3.93a71.78,71.78,0,0,1,10,.41c2.6,0.28,5.19.88,7.8,1.06a35.56,35.56,0,0,0,6.05-.28c3.4-.35,6.83-0.5,10.21-1,3.72-.53,7.8-1.38,11-3.54a5.39,5.39,0,0,0,3.5,2.71c1,0.31,3.11.84,3.8-.43,0.94,0.7,1.86,1.46,2.82,2.09a3,3,0,0,0,3.41.24,6.53,6.53,0,0,0,1.07-2.32A2.22,2.22,0,0,0,190,50.13ZM34.63,55.82a2.88,2.88,0,0,1-3.74-1.25,2.64,2.64,0,0,1,.66-3.75,2.88,2.88,0,0,1,3.74,1.25A2.64,2.64,0,0,1,34.63,55.82Z" transform="translate(0 0)" fill="url(#b)"/>
    <path d="M141.39,48.33s10.28,6.91,18.27,8.24,17.38,0.22,17.44.21h0s-4-1.2-3.94-2.69,5-4.3,5-4.3-8.5,3.23-14.87,3.43c-5.44.17-8.45-.39-13.86-3.56s-5.23-3.24-5.23-3.24Z" transform="translate(0 0)" fill="url(#c)"/>
    <path d="M26.7,62.36c0.06,3.7-1.65,6.85-3.54,9.7a58,58,0,0,1-5.43,7c2.77,5.66,10.25,4.63,13.49,1.91s5.65-6.55,8.32-10c1.31-1.68,3.45-2.79,5.16-3.86C37.39,61.36,32.85,58.55,26.7,62.36Z" transform="translate(0 0)" fill="url(#d)"/>
    <path d="M124.76,17.35c2.44,0.84.36,2.55-1.5,3.69,2.77-1.39,7.47-3.32,9-1.23,1.07,1.49-.11,2.66-1.57,3.46,2.51-.78,5.78-1.37,7.31.19l0,0c3.33-1.79,6.23-3.84,6.16-5.54s-4.59-.69-9.49,1.07c2.7-1.51,4.61-3.12,4-4.48-1-2.24-8.51.24-14.49,2.65A4.44,4.44,0,0,1,124.76,17.35Z" transform="translate(0 0)" fill="url(#e)"/>
    <path d="M151.16,21.95c-0.89-2-7.2-.29-13,1.81,0.83,1.22-.65,2.32-2.45,3.14,3.48-1,7.82-1.82,8.21.2a2,2,0,0,1,0,.34C148.2,25.78,152,23.74,151.16,21.95Z" transform="translate(0 0)" fill="url(#f)"/>
    <path d="M117.34,16.09c1.18,0.19,1.51.68,1.39,1.26a5.63,5.63,0,0,1-1.84,2.39c1.37-1,4.12-2.81,6.7-2.63,2.54-1.54,4.34-3.24,2.31-4.29C121.49,10.53,109.13,18,109.13,18l0.1,0.15C113.32,16.77,116.4,15.94,117.34,16.09Z" transform="translate(0 0)" fill="url(#g)"/>
    <path d="M149.16,29.3c-0.91-.72-4-0.22-6.94.46,1.15-.63,2-1.49,1.73-2.67-0.39-2-4.72-1.21-8.21-.2,1.94-.88,3.52-2.09,2.21-3.43-1.53-1.56-4.8-1-7.31-.19,1.46-.8,2.63-2,1.57-3.46-1.49-2.09-6.2-.16-9,1.23,1.86-1.14,3.94-2.85,1.5-3.69-2.87-1-6.29,1.2-7.86,2.39a5.63,5.63,0,0,0,1.84-2.39c0.12-.59-0.21-1.08-1.39-1.26-3.83-.61-42.76,14.86-41.6,20.84,1.21,6.23,19.64,8,41.18,4,8.89-1.66,31.86-7.85,32.49-10.9A0.68,0.68,0,0,0,149.16,29.3Z" transform="translate(0 0)" fill="url(#h)"/>
    <path d="M34.3,115.6L34,115.21q-0.35-.54-0.74-1.07c-0.22-.3-0.44-0.59-0.67-0.88s-0.48-.6-0.73-0.89-0.62-.72-0.93-1.07l-0.62-.67c-0.67-.72-1.35-1.39-2-2a13.07,13.07,0,0,1-4.51-1.11l0,0c3.48,1.63,6.22,4.63,8.5,7.51,1.75,2.2,3.31,4.55,4.94,6.85A23,23,0,0,0,34.3,115.6Z" transform="translate(0 0)" fill="url(#i)"/>
    <path d="M18.51,94.54a22.69,22.69,0,0,0-1.67,4.18,141.81,141.81,0,0,0-5.45,18.19c-4.3,18.78-4.69,38.15,2.08,54.36,7.87,18.82,24.79,31.55,44.63,38.05a94.84,94.84,0,0,0,15.72,3.61c4.07,0.6,9.37,2,7.72,7.36-0.74,2.4-1.84,4.52-1.9,7A8.28,8.28,0,0,0,83,234.36c3.12,2.38,7.12,4.22,11.71,3.08a17.91,17.91,0,0,0,7.76-4.47c1.87-1.74,3.27-3.83,5.09-5.6,0.18-.18.37-0.33,0.56-0.49-6.48-3.45-6.16-9.17-4.56-18.52a25.94,25.94,0,0,1-3.34-2.36c-1.13-.94-2.18-1.94-3.27-2.91-0.89-.79-2-1.44-2.79-2.29-2.22-2.31-2.61-6.12-3-9.35-0.36-3.4-.21-7-1.27-10.18a28.86,28.86,0,0,0-4.09-7.6,41.58,41.58,0,0,0-12.38-11.45c-5-3-10-6-14.87-9.2-4-2.6-7.38-5.09-9.88-9.1a66.68,66.68,0,0,1-4.48-8.63c-1-2.34-1.74-4.84-2.86-7.13a33,33,0,0,0-3.2-5c-2-2.69-3.77-5.52-5.84-8.13-2.28-2.87-5-5.88-8.5-7.51a5.31,5.31,0,0,0,.7-4.36c-0.22-1-.77-3.07-2.23-3,0.16-1.15.39-2.32,0.49-3.46a2.77,2.77,0,0,0-1.44-3,6.84,6.84,0,0,0-2.58.28A2.27,2.27,0,0,0,18.51,94.54ZM99.17,223a2.75,2.75,0,0,1,.71,3.81,2.79,2.79,0,0,1-3.65,1.37,2.75,2.75,0,0,1-.71-3.81A2.79,2.79,0,0,1,99.17,223Z" transform="translate(0 0)" fill="url(#j)"/>
    <path d="M40.59,136.58s1.13-12.24-1.58-19.68-8.26-14.8-8.3-14.85h0s0.9,4-.47,4.71-6.23-2-6.23-2,7,5.52,10.28,10.81c2.8,4.51,3.77,7.34,3.58,13.55s-0.33,6.08-.33,6.08Z" transform="translate(0 0)" fill="url(#k)"/>
    <path d="M108.83,226.34c3.25-1.95,6.88-2.12,10.32-2a59,59,0,0,1,8.82,1c3.67-5.25-.88-11-4.87-12.38s-8.56-1.41-12.89-1.92c-2.13-.25-4.15-1.48-5.94-2.38C102.74,217.82,102.46,223.1,108.83,226.34Z" transform="translate(0 0)" fill="url(#l)"/>
    <path d="M21.19,166.55c-0.44-2.5,2.08-1.61,4-.63-2.58-1.63-6.58-4.61-5.45-6.95,0.8-1.67,2.41-1.28,3.84-.46-1.92-1.72-4-4.18-3.39-6.27v0c-3.21-1.9-6.43-3.3-7.91-2.36s1.62,4.23,5.56,7.47c-2.66-1.51-5-2.3-5.92-1.09-1.5,2,4.35,7.07,9.4,10.89A4.17,4.17,0,0,1,21.19,166.55Z" transform="translate(0 0)" fill="url(#m)"/>
    <path d="M12.42,141.86c-1.37,1.8,3.25,6.24,7.91,10,0.68-1.33,2.37-.64,4,0.46-2.59-2.43-5.42-5.68-3.81-7a2.17,2.17,0,0,1,.29-0.2C17.26,142.4,13.63,140.27,12.42,141.86Z" transform="translate(0 0)" fill="url(#n)"/>
    <path d="M23.67,173.47c-0.41-1.1-.13-1.62.45-1.82a5.73,5.73,0,0,1,3,.33c-1.59-.62-4.5-2-5.59-4.32-2.6-1.36-5-2-4.93.25,0.11,4.91,12.79,11.5,12.79,11.5l0.08-.16C26.24,176.52,24,174.34,23.67,173.47Z" transform="translate(0 0)" fill="url(#o)"/>
    <path d="M19.91,139.78c-0.19,1.14,1.76,3.52,3.78,5.63-1.12-.65-2.28-0.89-3.21-0.1-1.61,1.37,1.23,4.61,3.81,7-1.73-1.19-3.57-1.9-4.12-.11-0.64,2.09,1.47,4.56,3.39,6.27-1.42-.82-3-1.21-3.84.46-1.12,2.33,2.87,5.32,5.45,6.95-1.92-1-4.45-1.87-4,.63,0.52,2.93,4.12,4.7,6,5.42a5.73,5.73,0,0,0-3-.33c-0.58.2-.86,0.73-0.45,1.82C25,177,57.67,202,62.41,197.93c4.94-4.22-2.44-20.73-16.49-36.87-5.8-6.66-22.47-22.91-25.48-21.87A0.72,0.72,0,0,0,19.91,139.78Z" transform="translate(0 0)" fill="url(#p)"/>
    <path d="M152.38,192.59l-0.22.42q-0.3.57-.59,1.18c-0.16.34-.31,0.68-0.46,1s-0.3.71-.44,1.08-0.33.89-.49,1.34c-0.1.29-.2,0.58-0.29,0.86-0.31.94-.58,1.86-0.82,2.73a12.27,12.27,0,0,1,1.21,4.38h0c-0.25-3.78,1.08-7.64,2.52-11,1.1-2.61,2.43-5.14,3.68-7.69A24.16,24.16,0,0,0,152.38,192.59Z" transform="translate(0 0)" fill="url(#q)"/>
    <path d="M141.37,216.75a23.91,23.91,0,0,0,4.52-.74,150.7,150.7,0,0,0,18.79-4.73c18.76-6,36.13-15.62,47.22-29.67,12.87-16.32,15.93-37.16,12-57.27a88.89,88.89,0,0,0-4.44-15.15c-1.45-3.75-2.76-9,2.78-10.31,2.49-.6,4.91-0.76,7.11-2a8.68,8.68,0,0,0,4.67-6.44c0.59-3.86.28-8.19-3-11.48a17.23,17.23,0,0,0-7.74-4.27c-2.46-.69-5-0.8-7.44-1.43-0.25-.06-0.47-0.15-0.71-0.22C215.3,80.32,210.07,83,201,86.43a25.43,25.43,0,0,1-.47,4c-0.28,1.43-.66,2.84-1,4.26-0.27,1.16-.32,2.4-0.68,3.53-1,3.06-4.16,5.35-6.86,7.3s-6.12,3.78-8.41,6.3a30.18,30.18,0,0,0-4.76,7.36,41.56,41.56,0,0,0-4.13,16.34c-0.24,5.77-.47,11.55-0.93,17.3-0.38,4.69-.92,8.86-3.27,13A69.88,69.88,0,0,1,165,174.1c-1.58,2.06-3.45,4-4.94,6.08a34.2,34.2,0,0,0-2.86,5.26c-1.43,3-3.06,6-4.37,9.11-1.44,3.4-2.77,7.26-2.52,11a5.68,5.68,0,0,0-4.21,1.64c-0.8.71-2.35,2.22-1.57,3.42-1.1.45-2.25,0.86-3.31,1.37a2.9,2.9,0,0,0-2,2.77,6.36,6.36,0,0,0,1.51,2A2.38,2.38,0,0,0,141.37,216.75ZM216.11,82.59a2.91,2.91,0,0,1,3-2.56,2.66,2.66,0,0,1,3,2.39,2.91,2.91,0,0,1-3,2.56A2.66,2.66,0,0,1,216.11,82.59Z" transform="translate(0 0)" fill="url(#r)"/>
    <path d="M167.93,176.5s-11.41,5.33-16.69,11.44a70.38,70.38,0,0,0-9.14,14.64h0s3.14-2.82,4.41-2,1.27,6.28,1.27,6.28,1.5-8.75,4.59-14.24c2.64-4.68,4.68-7,10.28-10s5.56-2.85,5.56-2.85Z" transform="translate(0 0)" fill="url(#s)"/>
    <path d="M214.37,72.71C211.06,71,209.14,68,207.59,65a54.9,54.9,0,0,1-3.39-8c-6.45-.41-9.38,6.41-8.62,10.47s2.91,8,4.57,11.88c0.81,1.93.7,4.27,0.78,6.24C209.77,82.24,214.6,79.76,214.37,72.71Z" transform="translate(0 0)" fill="url(#t)"/>
    <path d="M204,177.51c-2,1.66-2.45-.93-2.5-3.06-0.19,3-.89,7.93-3.51,8.18-1.87.18-2.31-1.38-2.27-3-0.59,2.5-1.75,5.56-3.92,6.09h0c-0.13,3.69.21,7.13,1.75,7.9s3-3.55,3.92-8.54c0,3,.4,5.42,1.91,5.57,2.5,0.25,4.15-7.31,5.09-13.54A4.46,4.46,0,0,1,204,177.51Z" transform="translate(0 0)" fill="url(#u)"/>
    <path d="M186.32,197.6c2.26,0.23,4-6,5.05-11.84-1.51.11-1.72-1.68-1.53-3.6-0.9,3.44-2.4,7.5-4.39,6.84a2.11,2.11,0,0,1-.32-0.14C184.44,193.23,184.32,197.39,186.32,197.6Z" transform="translate(0 0)" fill="url(#v)"/>
    <path d="M208.89,171.86c-0.77.91-1.37,0.94-1.84,0.56a5.34,5.34,0,0,1-1.18-2.72c0.22,1.66.38,4.86-1.11,6.94,0.06,2.89.65,5.24,2.62,4,4.3-2.62,4-16.72,4-16.72h-0.18C210.35,168.12,209.51,171.13,208.89,171.86Z" transform="translate(0 0)" fill="url(#w)"/>
    <path d="M180.83,192.33c1.11-.42,2.27-3.29,3.15-6.09,0,1.28.32,2.38,1.48,2.76,2,0.66,3.5-3.41,4.39-6.84-0.21,2.07,0,4,1.9,3.54,2.17-.53,3.33-3.58,3.92-6.09,0,1.63.4,3.19,2.27,3,2.62-.25,3.32-5.16,3.51-8.18,0.06,2.13.5,4.72,2.5,3.06,2.35-1.94,2.16-5.9,1.91-7.81a5.34,5.34,0,0,0,1.18,2.72c0.46,0.38,1.06.35,1.84-.56,2.51-2.94,8.77-43.38,2.86-45.31-6.15-2-17.2,12.71-24.69,32.87-3.09,8.32-9.4,30.76-7,32.78A0.73,0.73,0,0,0,180.83,192.33Z" transform="translate(0 0)" fill="url(#x)"/>
  </g>
</svg>
