<svg xmlns="http://www.w3.org/2000/svg" xmlns:xlink="http://www.w3.org/1999/xlink" viewBox="0 0 231.75 227.41">
  <defs>
    <linearGradient id="a" x1="134.43" y1="21.25" x2="131.7" y2="13.75" gradientTransform="translate(42.03 45.81) rotate(-4.69)" gradientUnits="userSpaceOnUse">
      <stop offset="0" stop-color="#b1278f"/>
      <stop offset="0.48" stop-color="#af278e"/>
      <stop offset="0.65" stop-color="#a8258a"/>
      <stop offset="0.76" stop-color="#9e2383"/>
    </linearGradient>
    <linearGradient id="b" x1="132.59" y1="29.22" x2="123.5" y2="4.25" gradientTransform="translate(42.03 45.81) rotate(-4.69)" gradientUnits="userSpaceOnUse">
      <stop offset="0" stop-color="#ec178d"/>
      <stop offset="0.47" stop-color="#ea178d"/>
      <stop offset="0.64" stop-color="#e3188c"/>
      <stop offset="0.76" stop-color="#d81a8a"/>
      <stop offset="0.86" stop-color="#c71d88"/>
      <stop offset="0.95" stop-color="#b12085"/>
      <stop offset="1" stop-color="#9e2383"/>
    </linearGradient>
    <radialGradient id="c" cx="59.81" cy="20.38" r="118.77" gradientTransform="translate(6.31 -12.17) rotate(8.15)" gradientUnits="userSpaceOnUse">
      <stop offset="0" stop-color="#ec178d"/>
      <stop offset="0.24" stop-color="#cb1c8c"/>
      <stop offset="0.77" stop-color="#772888"/>
      <stop offset="1" stop-color="#512e87"/>
    </radialGradient>
    <radialGradient id="d" cx="1.43" cy="-1.38" r="20.48" gradientTransform="matrix(1.04, -0.09, 0.09, 1.07, 29.26, 48.2)" gradientUnits="userSpaceOnUse">
      <stop offset="0" stop-color="#ba258e"/>
      <stop offset="0.23" stop-color="#b5258d"/>
      <stop offset="0.51" stop-color="#a5278b"/>
      <stop offset="0.83" stop-color="#8b2987"/>
      <stop offset="1" stop-color="#7a2a85"/>
    </radialGradient>
    <radialGradient id="e" cx="111.68" cy="-25.22" r="14.09" gradientTransform="matrix(1.04, -0.09, 0.08, 0.94, 28.99, 44.91)" gradientUnits="userSpaceOnUse">
      <stop offset="0.09" stop-color="#e21a8d"/>
      <stop offset="1" stop-color="#952584"/>
    </radialGradient>
    <radialGradient id="f" cx="119.28" cy="-14.33" r="8.57" gradientTransform="matrix(1.04, -0.09, 0.08, 0.94, 29.11, 46.33)" xlink:href="#e"/>
    <radialGradient id="g" cx="97.49" cy="-27.5" r="9.43" gradientTransform="matrix(1.04, -0.09, 0.08, 0.94, 28.97, 44.61)" xlink:href="#e"/>
    <radialGradient id="h" cx="87.93" cy="-13.35" r="52.44" gradientTransform="matrix(1.05, -0.03, 0.02, 0.78, 27.16, 31.14)" gradientUnits="userSpaceOnUse">
      <stop offset="0" stop-color="#e21a8d"/>
      <stop offset="0.25" stop-color="#df1a8d"/>
      <stop offset="0.44" stop-color="#d51c8c"/>
      <stop offset="0.6" stop-color="#c51e8a"/>
      <stop offset="0.76" stop-color="#af2187"/>
      <stop offset="0.89" stop-color="#952584"/>
    </radialGradient>
    <linearGradient id="i" x1="127.69" y1="4.18" x2="124.96" y2="-3.32" gradientTransform="translate(100.9 190.62) rotate(-124.69)" xlink:href="#a"/>
    <linearGradient id="j" x1="125.85" y1="12.15" x2="116.77" y2="-12.82" gradientTransform="translate(100.9 190.62) rotate(-124.69)" xlink:href="#b"/>
    <radialGradient id="k" cx="49.45" cy="5.23" r="118.77" gradientTransform="translate(68.54 250.55) rotate(-111.85)" xlink:href="#c"/>
    <radialGradient id="l" cx="-5.03" cy="-17.26" r="20.48" gradientTransform="matrix(-0.6, -0.86, 0.89, -0.61, 109.35, 200.49)" xlink:href="#d"/>
    <radialGradient id="m" cx="105.22" cy="-41.1" r="14.09" gradientTransform="matrix(-0.6, -0.86, 0.78, -0.54, 104.92, 203.54)" xlink:href="#e"/>
    <radialGradient id="n" cx="112.82" cy="-30.21" r="8.57" gradientTransform="matrix(-0.6, -0.86, 0.78, -0.54, 106.1, 202.73)" xlink:href="#e"/>
    <radialGradient id="o" cx="91.03" cy="-43.38" r="9.43" gradientTransform="matrix(-0.6, -0.86, 0.78, -0.54, 104.68, 203.71)" xlink:href="#e"/>
    <radialGradient id="p" cx="80.69" cy="-34.64" r="52.44" gradientTransform="matrix(-0.55, -0.89, 0.67, -0.41, 95.63, 210.83)" xlink:href="#h"/>
    <linearGradient id="q" x1="142.57" y1="6.98" x2="139.84" y2="-0.52" gradientTransform="matrix(-0.43, 0.9, -0.9, -0.43, 194.64, 69.75)" xlink:href="#a"/>
    <linearGradient id="r" x1="140.73" y1="14.94" x2="131.64" y2="-10.02" gradientTransform="matrix(-0.43, 0.9, -0.9, -0.43, 194.64, 69.75)" xlink:href="#b"/>
    <radialGradient id="s" cx="64.58" cy="4.66" r="118.77" gradientTransform="matrix(-0.62, 0.79, -0.79, -0.62, 262.72, 67.81)" xlink:href="#c"/>
    <radialGradient id="t" cx="9.18" cy="-14.64" r="20.48" gradientTransform="matrix(-0.45, 0.95, -0.97, -0.46, 198.96, 57.49)" xlink:href="#d"/>
    <radialGradient id="u" cx="119.43" cy="-38.48" r="14.09" gradientTransform="matrix(-0.45, 0.95, -0.85, -0.41, 203.51, 59.66)" xlink:href="#e"/>
    <radialGradient id="v" cx="127.03" cy="-27.59" r="8.57" gradientTransform="matrix(-0.45, 0.95, -0.85, -0.41, 202.23, 59.04)" xlink:href="#e"/>
    <radialGradient id="w" cx="105.24" cy="-40.76" r="9.43" gradientTransform="matrix(-0.45, 0.95, -0.85, -0.41, 203.78, 59.78)" xlink:href="#e"/>
    <radialGradient id="x" cx="95.02" cy="-32.02" r="52.44" gradientTransform="matrix(-0.49, 0.92, -0.69, -0.37, 214.79, 64.21)" xlink:href="#h"/>
  </defs>
  <title>logo-diecut</title>
  <path d="M228.38,82.4c-2.66-3.81-4.9-5-8.32-6.53L220,75.82a37.4,37.4,0,0,0-4.54-1.66c-0.92-.29-1.79-0.56-2.52-0.87l-0.06,0c-1.07-.87-1.89-2.37-2.8-5.13a50.73,50.73,0,0,1-1.85-7.48,7.32,7.32,0,0,0-1.17-2.9,7.38,7.38,0,0,0,.36-1.85,7.54,7.54,0,0,0-1.09-4.3A22.36,22.36,0,0,0,204.12,48c-0.19-.27-0.37-0.52-0.53-0.77A117.73,117.73,0,0,0,191.52,31c-16.5-18-50.59-31-81-31C87.67,0,70.89,7.51,63.1,21.17a34.62,34.62,0,0,0-3.67-2.95c-0.4-.29-0.83-0.59-1.41-1a16.32,16.32,0,0,0-10.16-3.61,16.73,16.73,0,0,0-3.92.47C35,16.21,31,21.28,29.17,25.16c-2,4.21-1.85,6.72-1.5,10.47v0.11a37.36,37.36,0,0,0,.83,4.77c0.21,0.94.41,1.83,0.51,2.62V43.2c-0.22,1.36-1.11,2.82-3,5a50.7,50.7,0,0,1-5.56,5.34,7.34,7.34,0,0,0-2.37,3.6,7.48,7.48,0,0,0-4.47,3.61,22.4,22.4,0,0,0-2,3.67c-0.14.29-.27,0.58-0.4,0.84a117.74,117.74,0,0,0-8,18.56c-8.25,26.28.37,68.55,19.22,94.23,10.52,14.33,23.06,21.9,36.28,21.9h0.19a34.73,34.73,0,0,0-.72,4.65c0,0.49-.1,1-0.2,1.74a16.21,16.21,0,0,0,4.33,13.76c4.62,4.85,9.8,7.31,15.4,7.31,0.54,0,1.08,0,1.61-.07,4.63-.4,6.75-1.76,9.82-3.94l0.09-.06a37.39,37.39,0,0,0,3.72-3.11c0.71-.65,1.39-1.27,2-1.75l0.06,0A5.79,5.79,0,0,1,97,218.1a18.71,18.71,0,0,1,3.75.48,50.65,50.65,0,0,1,7.41,2.14,7.3,7.3,0,0,0,4,.31c0.15,0.12.31,0.23,0.46,0.33a7.6,7.6,0,0,0,4.13,1.2H117c0.48,0,1,.07,1.52.07h0c1,0,1.9-.08,2.64-0.14l0.93-.07a117.7,117.7,0,0,0,20.08-2.35c27.45-6.12,60-35.21,72.47-64.86,6.72-15.94,6.81-30.24.26-41.43a34.53,34.53,0,0,0,4.39-1.7c0.45-.21.93-0.42,1.6-0.7a16.21,16.21,0,0,0,9.76-10.63C233.22,91.94,230.84,85.91,228.38,82.4Z" fill="#fff"/>
  <g>
    <g>
      <path d="M172.79,54.28l0.48,0q0.65,0.06,1.33.08l1.14,0,1.18,0,1.45-.07,0.93-.06c1-.08,2-0.19,2.89-0.3a13.09,13.09,0,0,1,3.73-2.77v0c-3.51,1.67-7.66,1.94-11.42,1.94-2.88,0-5.77-.24-8.65-0.39A24.67,24.67,0,0,0,172.79,54.28Z" fill="url(#a)"/>
      <path d="M151.86,46.34s9.2,8.3,16.92,10.75,17.17,2.68,17.23,2.68h0s-3.82-1.76-3.52-3.22S188,53,188,53s-8.87,2-15.21,1.29c-5.41-.6-8.31-1.58-13.22-5.49s-4.72-3.94-4.72-3.94Z" fill="url(#b)"/>
      <g>
        <path d="M199.75,55a22.26,22.26,0,0,0-2.34-3.82A110.43,110.43,0,0,0,186.11,36C160.32,7.89,86.23-6.27,69.17,25.36c-1.95,3.61-6.7,5.19-10.81,1.43A53.13,53.13,0,0,0,53.49,23a8.86,8.86,0,0,0-7.82-1.77c-3.88.94-7.89,2.88-9.85,7.08-1.24,2.65-1.11,3.79-.83,6.8,0.23,2.49,1,4.83,1.33,7.29,0,0.25,0,.49,0,0.73,6.87-2.86,11.29.86,17.86,7.76a27.32,27.32,0,0,1,4-1.11c1.46-.29,2.94-0.49,4.41-0.73,1.2-.2,2.4-0.63,3.6-0.74,3.26-.29,6.59,1.72,9.42,3.42s5.81,4.1,9,5.21a31.06,31.06,0,0,0,8.72,1.49,44.28,44.28,0,0,0,17-2.51c5.58-2,11.15-4,16.79-5.77,4.59-1.45,8.76-2.55,13.57-2a71.78,71.78,0,0,1,9.8,1.82c2.54,0.64,5,1.61,7.57,2.15a35.56,35.56,0,0,0,6,.58c3.41,0.13,6.84.47,10.25,0.47,3.76,0,7.91-.27,11.42-1.94A5.39,5.39,0,0,0,189,54.34c1,0.46,3,1.28,3.82.11,0.83,0.82,1.63,1.71,2.5,2.47a3,3,0,0,0,3.34.73A6.53,6.53,0,0,0,200,55.51,2.22,2.22,0,0,0,199.75,55ZM45.11,38.62a2.88,2.88,0,0,1-3.53-1.77,2.64,2.64,0,0,1,1.19-3.62A2.88,2.88,0,0,1,46.3,35,2.64,2.64,0,0,1,45.11,38.62Z" fill="url(#c)"/>
        <path d="M36.34,44c-0.47,3.67-2.6,6.55-4.87,9.1a58,58,0,0,1-6.36,6.12c1.94,6,9.49,6,13.08,3.8s6.52-5.68,9.65-8.68c1.54-1.47,3.81-2.27,5.66-3.09C47.07,44.5,43,41.07,36.34,44Z" fill="url(#d)"/>
      </g>
      <g>
        <path d="M133.78,17.32c2.3,1.18,0,2.57-2,3.44,2.94-1,7.87-2.22,9,.05,0.84,1.63-.48,2.62-2,3.21,2.6-.42,5.92-0.54,7.21,1.22l0,0c3.55-1.3,6.71-2.91,6.88-4.61s-4.45-1.33-9.54-.28c2.89-1.11,5-2.44,4.6-3.86-0.67-2.36-8.46-1-14.72.57A4.44,4.44,0,0,1,133.78,17.32Z" fill="url(#e)"/>
        <path d="M159.27,25.61c-0.6-2.14-7.09-1.31-13.09,0,0.65,1.33-1,2.2-2.87,2.76,3.59-.5,8-0.69,8.1,1.36a2,2,0,0,1,0,.35C155.8,29,159.8,27.5,159.27,25.61Z" fill="url(#f)"/>
        <path d="M126.62,15c1.15,0.35,1.4.88,1.2,1.45a5.63,5.63,0,0,1-2.16,2.11c1.5-.83,4.48-2.2,7-1.65,2.73-1.16,4.75-2.59,2.9-3.92-4-2.9-17.34,2.79-17.34,2.79l0.08,0.16C122.54,15.12,125.71,14.73,126.62,15Z" fill="url(#g)"/>
        <path d="M156.25,32.6c-0.8-.84-4-0.79-6.93-0.53,1.23-.46,2.15-1.2,2.09-2.39-0.1-2.06-4.5-1.86-8.1-1.36,2-.6,3.78-1.57,2.68-3.08-1.29-1.76-4.61-1.64-7.21-1.22,1.56-.59,2.89-1.58,2-3.21-1.18-2.28-6.11-1-9-.05,2-.87,4.31-2.26,2-3.44-2.7-1.38-6.39.3-8.12,1.26a5.63,5.63,0,0,0,2.16-2.11c0.2-.56-0.05-1.1-1.2-1.45-3.71-1.14-44.43,8.66-44.13,14.74,0.31,6.34,18.31,10.72,40.19,9.79,9-.39,32.65-3.25,33.71-6.19A0.68,0.68,0,0,0,156.25,32.6Z" fill="url(#h)"/>
      </g>
    </g>
    <g>
      <path d="M32.65,88.4c-0.06-.14-0.14-0.29-0.21-0.44q-0.28-.59-0.59-1.19c-0.18-.33-0.36-0.66-0.55-1s-0.4-.68-0.6-1-0.52-.82-0.78-1.22l-0.52-.77c-0.57-.83-1.15-1.62-1.71-2.35a13.09,13.09,0,0,1-4.27-1.84l0,0c3.2,2.2,5.51,5.66,7.39,8.92,1.44,2.49,2.68,5.11,4,7.69A24.67,24.67,0,0,0,32.65,88.4Z" fill="url(#i)"/>
      <path d="M36.24,110.5s2.59-12.12.85-20S30.82,74.26,30.8,74.21h0s0.39,4.19-1,4.66-5.84-3-5.84-3,6.16,6.68,8.72,12.53c2.19,5,2.79,8,1.85,14.19s-1.06,6.06-1.06,6.06Z" fill="url(#j)"/>
      <g>
        <path d="M19.8,64.69a22.26,22.26,0,0,0-2.14,3.93A110.43,110.43,0,0,0,10.14,86C-1.29,122.39,23.49,193.64,59.41,192.59c4.1-.12,7.84,3.21,6.64,8.65a53.13,53.13,0,0,0-.89,6.15A8.86,8.86,0,0,0,67.55,215c2.75,2.89,6.44,5.39,11.05,5,2.92-.25,3.84-0.93,6.3-2.68,2-1.45,3.66-3.31,5.65-4.8,0.2-.15.4-0.27,0.61-0.4-5.91-4.52-4.9-10.21-2.21-19.34a27.32,27.32,0,0,1-3-2.91c-1-1.12-1.89-2.3-2.84-3.46-0.77-.94-1.75-1.76-2.44-2.75C78.82,181,78.89,177.1,79,173.8c0.06-3.47.65-7.08,0-10.43a31.06,31.06,0,0,0-3.07-8.3,44.28,44.28,0,0,0-10.69-13.5c-4.51-3.84-9-7.66-13.39-11.65-3.55-3.25-6.59-6.31-8.54-10.74a71.78,71.78,0,0,1-3.32-9.4c-0.71-2.52-1.11-5.15-1.92-7.63a35.56,35.56,0,0,0-2.52-5.51c-1.59-3-3-6.15-4.72-9.11-1.88-3.26-4.19-6.72-7.39-8.92a5.39,5.39,0,0,0,1.22-4.26c-0.09-1.07-.38-3.2-1.81-3.36,0.3-1.13.66-2.27,0.89-3.4a3,3,0,0,0-1-3.26,6.53,6.53,0,0,0-2.55-.13A2.22,2.22,0,0,0,19.8,64.69ZM82.93,206.8a2.88,2.88,0,0,1,.23,3.94,2.64,2.64,0,0,1-3.73.78,2.88,2.88,0,0,1-.23-3.94A2.64,2.64,0,0,1,82.93,206.8Z" fill="url(#k)"/>
        <path d="M91.95,211.72c3.41-1.43,7-1,10.32-.33a58,58,0,0,1,8.48,2.45c4.22-4.68.48-11.24-3.25-13.23s-8.18-2.8-12.34-4c-2-.59-3.87-2.16-5.51-3.35C87,202.17,86.13,207.43,91.95,211.72Z" fill="url(#l)"/>
      </g>
      <g>
        <path d="M20.14,140.66c-0.13-2.58,2.23-1.28,4,0-2.32-2.05-5.86-5.7-4.48-7.86,1-1.54,2.51-.89,3.8.16-1.66-2-3.43-4.85-2.54-6.85l0,0c-2.9-2.43-5.88-4.35-7.43-3.65S14.56,127,18,130.85c-2.41-1.94-4.61-3.12-5.65-2.06-1.71,1.76,3.39,7.81,7.85,12.47A4.44,4.44,0,0,1,20.14,140.66Z" fill="url(#m)"/>
        <path d="M14.58,114.44C13,116,17,121.24,21.08,125.8c0.82-1.23,2.39-.26,3.82,1.1-2.23-2.86-4.6-6.58-2.87-7.69a2,2,0,0,1,.31-0.16C19.24,115.76,16,113,14.58,114.44Z" fill="url(#n)"/>
        <path d="M21.73,148c-0.27-1.17.07-1.65,0.66-1.76a5.63,5.63,0,0,1,2.91.82c-1.47-.88-4.15-2.78-4.93-5.24C18,140,15.74,139,15.52,141.28,15,146.23,26.6,154.91,26.6,154.91l0.1-.15C23.86,151.5,21.94,148.95,21.73,148Z" fill="url(#o)"/>
        <path d="M22.15,113.56c-0.33,1.11,1.29,3.82,3,6.27-1-.83-2.12-1.26-3.12-0.61-1.73,1.11.64,4.83,2.87,7.69-1.54-1.47-3.25-2.49-4-.78-0.88,2,.88,4.81,2.54,6.85-1.29-1.06-2.81-1.71-3.8-.16-1.38,2.16,2.16,5.81,4.48,7.86-1.75-1.3-4.11-2.6-4,0,0.15,3,3.45,5.39,5.15,6.41a5.63,5.63,0,0,0-2.91-.82c-0.59.11-.92,0.59-0.66,1.76,0.86,3.78,29.71,34.15,34.83,30.85,5.33-3.44.13-21.22-11.62-39.7-4.85-7.63-19.14-26.65-22.21-26.1A0.68,0.68,0,0,0,22.15,113.56Z" fill="url(#p)"/>
      </g>
    </g>
    <g>
      <path d="M131.36,192.22l-0.28.4q-0.38.54-.74,1.11c-0.2.32-.4,0.64-0.59,1s-0.39.68-.58,1-0.45.86-.67,1.29l-0.41.84c-0.43.91-.83,1.8-1.18,2.66a13.09,13.09,0,0,1,.54,4.61h0c0.3-3.87,2.15-7.6,4-10.86,1.44-2.49,3.09-4.88,4.66-7.3A24.67,24.67,0,0,0,131.36,192.22Z" fill="url(#q)"/>
      <path d="M148.7,178.06s-11.79,3.82-17.76,9.28S120,200.87,120,200.92h0s3.44-2.43,4.55-1.44,0.32,6.55.32,6.55,2.71-8.68,6.49-13.82c3.22-4.38,5.52-6.41,11.36-8.7s5.77-2.11,5.77-2.11Z" fill="url(#r)"/>
      <g>
        <path d="M117.25,215.2a22.26,22.26,0,0,0,4.47-.12,110.43,110.43,0,0,0,18.83-2.18c37.22-8.29,86.53-65.38,67.66-96-2.15-3.49-1.14-8.4,4.17-10.07a53.13,53.13,0,0,0,5.76-2.31,8.86,8.86,0,0,0,5.44-5.89c1.13-3.83,1.45-8.27-1.21-12.07-1.68-2.4-2.73-2.86-5.47-4.12-2.27-1-4.7-1.51-7-2.49-0.23-.1-0.44-0.21-0.65-0.32-1,7.38-6.39,9.35-15.65,11.58a27.32,27.32,0,0,1-1,4c-0.48,1.41-1,2.79-1.57,4.19-0.43,1.14-.65,2.39-1.16,3.49-1.38,3-4.79,4.85-7.68,6.45s-6.45,3-9,5.22a31.06,31.06,0,0,0-5.65,6.81,44.28,44.28,0,0,0-6.35,16c-1.07,5.82-2.12,11.66-3.39,17.42-1,4.7-2.17,8.86-5,12.77a71.78,71.78,0,0,1-6.48,7.58c-1.82,1.87-3.9,3.54-5.65,5.48a35.56,35.56,0,0,0-3.52,4.94c-1.82,2.89-3.82,5.68-5.53,8.64-1.88,3.25-3.73,7-4,10.86a5.39,5.39,0,0,0-4.3,1.08c-0.88.61-2.59,1.93-2,3.25-1.13.31-2.29,0.56-3.39,0.92a3,3,0,0,0-2.3,2.53,6.53,6.53,0,0,0,1.16,2.28A2.22,2.22,0,0,0,117.25,215.2ZM208.75,89.48A2.88,2.88,0,0,1,212,87.3a2.64,2.64,0,0,1,2.54,2.84,2.88,2.88,0,0,1-3.3,2.17A2.64,2.64,0,0,1,208.75,89.48Z" fill="url(#s)"/>
        <path d="M208.51,79.21c-2.94-2.24-4.37-5.53-5.44-8.77a58,58,0,0,1-2.12-8.57c-6.17-1.32-10,5.2-9.83,9.43s1.66,8.49,2.7,12.7c0.51,2.07.06,4.43-.15,6.45C202.69,88.23,207.7,86.39,208.51,79.21Z" fill="url(#t)"/>
      </g>
      <g>
        <path d="M182.87,176.92c-2.17,1.4-2.23-1.29-2-3.46-0.62,3-2,7.92-4.57,7.81-1.83-.08-2-1.73-1.76-3.37-0.93,2.46-2.49,5.4-4.66,5.63h0c-0.65,3.72-.83,7.27.55,8.26s3.37-3.19,5-8.12c-0.48,3.06-.39,5.56,1,5.92,2.38,0.6,5.06-6.84,6.87-13A4.44,4.44,0,0,1,182.87,176.92Z" fill="url(#u)"/>
        <path d="M162.95,194.85c2.15,0.55,4.68-5.49,6.59-11.31-1.48-.1-1.42-1.94-1-3.86-1.36,3.36-3.4,7.27-5.23,6.33a2,2,0,0,1-.29-0.19C161.76,190.15,161,194.36,162.95,194.85Z" fill="url(#v)"/>
        <path d="M188.44,171.87c-0.88.82-1.46,0.77-1.85,0.31a5.63,5.63,0,0,1-.74-2.93c0,1.72-.33,5-2.07,6.89-0.36,2.94-.13,5.41,1.95,4.47,4.53-2.05,6.26-16.41,6.26-16.41H191.8C190.39,168.28,189.14,171.22,188.44,171.87Z" fill="url(#w)"/>
        <path d="M158.4,188.73c1.13-.27,2.66-3,3.92-5.74-0.21,1.29,0,2.46,1,3,1.83,0.94,3.87-3,5.23-6.33-0.5,2.07-.53,4.06,1.33,3.86,2.17-.23,3.73-3.17,4.66-5.63-0.27,1.65-.07,3.29,1.76,3.37,2.56,0.11,4-4.77,4.57-7.81-0.25,2.17-.19,4.86,2,3.46,2.55-1.64,2.94-5.68,3-7.66a5.63,5.63,0,0,0,.74,2.93c0.39,0.45,1,.5,1.85-0.31,2.84-2.64,14.72-42.81,9.3-45.59-5.65-2.9-18.44,10.49-28.58,29.91-4.18,8-13.51,29.91-11.49,32.29A0.68,0.68,0,0,0,158.4,188.73Z" fill="url(#x)"/>
      </g>
    </g>
  </g>
</svg>
