<svg id="Layer_1" data-name="Layer 1" xmlns="http://www.w3.org/2000/svg" xmlns:xlink="http://www.w3.org/1999/xlink" viewBox="0 0 209.6478 197.6059"><defs><linearGradient id="linear-gradient" x1="155.6375" y1="203.2635" x2="179.7757" y2="203.2635" gradientUnits="userSpaceOnUse"><stop offset="0" stop-color="#ec1a8e"/><stop offset="0.1324" stop-color="#e71b8e"/><stop offset="0.2997" stop-color="#d71d8d"/><stop offset="0.4858" stop-color="#bd208c"/><stop offset="0.6855" stop-color="#99258a"/><stop offset="0.8938" stop-color="#6b2b88"/><stop offset="1" stop-color="#512e87"/></linearGradient><linearGradient id="linear-gradient-2" x1="142.3839" y1="201.7848" x2="177.1693" y2="201.7848" xlink:href="#linear-gradient"/><linearGradient id="linear-gradient-3" x1="67.2127" y1="182.4527" x2="208.4566" y2="182.4527" xlink:href="#linear-gradient"/><linearGradient id="linear-gradient-4" x1="45.465" y1="182.4527" x2="213.3344" y2="182.4527" xlink:href="#linear-gradient"/><linearGradient id="linear-gradient-5" x1="134.853" y1="182.4569" x2="176.2291" y2="182.4569" xlink:href="#linear-gradient"/><linearGradient id="linear-gradient-6" x1="121.0853" y1="184.9132" x2="160.0308" y2="184.9132" xlink:href="#linear-gradient"/><linearGradient id="linear-gradient-7" x1="57.6227" y1="188.5827" x2="72.8694" y2="188.5827" xlink:href="#linear-gradient"/><linearGradient id="linear-gradient-8" x1="219.5157" y1="200.2325" x2="243.6539" y2="200.2325" gradientTransform="translate(2.1742 544.8569) rotate(-120)" xlink:href="#linear-gradient"/><linearGradient id="linear-gradient-9" x1="206.2621" y1="198.7538" x2="241.0475" y2="198.7538" gradientTransform="translate(2.1742 544.8569) rotate(-120)" xlink:href="#linear-gradient"/><linearGradient id="linear-gradient-10" x1="131.0909" y1="179.4217" x2="272.3348" y2="179.4217" gradientTransform="translate(2.1742 544.8569) rotate(-120)" xlink:href="#linear-gradient"/><linearGradient id="linear-gradient-11" x1="109.3432" y1="179.4217" x2="277.2126" y2="179.4217" gradientTransform="translate(2.1742 544.8569) rotate(-120)" xlink:href="#linear-gradient"/><linearGradient id="linear-gradient-12" x1="198.7312" y1="179.426" x2="240.1073" y2="179.426" gradientTransform="translate(2.1742 544.8569) rotate(-120)" xlink:href="#linear-gradient"/><linearGradient id="linear-gradient-13" x1="184.9635" y1="181.8822" x2="223.909" y2="181.8822" gradientTransform="translate(2.1742 544.8569) rotate(-120)" xlink:href="#linear-gradient"/><linearGradient id="linear-gradient-14" x1="121.5009" y1="185.5518" x2="136.7476" y2="185.5518" gradientTransform="translate(2.1742 544.8569) rotate(-120)" xlink:href="#linear-gradient"/><linearGradient id="linear-gradient-15" x1="194.4856" y1="260.9907" x2="218.6238" y2="260.9907" gradientTransform="translate(479.8897 268.2331) rotate(120)" xlink:href="#linear-gradient"/><linearGradient id="linear-gradient-16" x1="181.232" y1="259.5119" x2="216.0174" y2="259.5119" gradientTransform="translate(479.8897 268.2331) rotate(120)" xlink:href="#linear-gradient"/><linearGradient id="linear-gradient-17" x1="106.0608" y1="240.1798" x2="247.3047" y2="240.1798" gradientTransform="translate(479.8897 268.2331) rotate(120)" xlink:href="#linear-gradient"/><linearGradient id="linear-gradient-18" x1="84.3131" y1="240.1798" x2="252.1825" y2="240.1798" gradientTransform="translate(479.8897 268.2331) rotate(120)" xlink:href="#linear-gradient"/><linearGradient id="linear-gradient-19" x1="173.7011" y1="240.1841" x2="215.0772" y2="240.1841" gradientTransform="translate(479.8897 268.2331) rotate(120)" xlink:href="#linear-gradient"/><linearGradient id="linear-gradient-20" x1="159.9334" y1="242.6403" x2="198.8789" y2="242.6403" gradientTransform="translate(479.8897 268.2331) rotate(120)" xlink:href="#linear-gradient"/><linearGradient id="linear-gradient-21" x1="96.4708" y1="246.3099" x2="111.7175" y2="246.3099" gradientTransform="translate(479.8897 268.2331) rotate(120)" xlink:href="#linear-gradient"/></defs><title>redux-observable-logo</title><path d="M158.077,202.0538s11.2119,0.8764,16.4-.2779l5.1884-1.1543s-8.3153,1.8734-8.2523,3.9694-6.3939,1.0328-6.3939,1.0328Z" transform="translate(-24.4113 -157.1152)" style="fill:#ec1b8f;stroke-miterlimit:10;stroke:url(#linear-gradient)"/><path d="M143.2639,194.4872s8.0137,8.5068,15.1314,11.4673a71.2019,71.2019,0,0,0,16.1436,4.0319s-3.4795-1.9673-3.0623-3.2994,5.5558-2.7944,5.5558-2.7944-9.81,1.9008-14.5722-.1755-7.9426-2.1949-12.0786-6.2694l-4.136-4.0745Z" transform="translate(-24.4113 -157.1152)" style="fill:#ec1b8f;stroke-miterlimit:10;stroke:url(#linear-gradient-2)"/><path d="M46.0363,197.5715s9.4757-5.3453,11.1765-9.4757-0.243-5.5882,0-10.9335,3.8875-8.7468,6.56-9.4757,7.289-2.9156,11.6624,0,3.6445,6.0742,6.8031,7.289,5.3453-.243,9.7187-3.1586,34.9872-21.624,68.7595-10.9335,51.9948,45.4347,51.9948,45.4347-2.43,2.1867-4.6164,0l-2.1867-2.1867s-0.7289.9719-3.4015-.243-2.9156-2.9156-2.9156-2.9156-4.8593,1.7008-14.092.4859-10.2046-.7289-15.55-2.6726-13.6061-3.8875-17.7365-3.8875-18.7084,3.4015-26.24,5.1023-20.4092.9719-25.9974-2.6726-10.9335-7.532-15.0639-6.8031-11.1765-.243-17.4936,4.13-10.4476,7.532-15.55,6.8031S46.0363,197.5715,46.0363,197.5715Z" transform="translate(-24.4113 -157.1152)" style="stroke-miterlimit:10;fill:url(#linear-gradient-3);stroke:url(#linear-gradient-4)"/><path d="M135.5577,177.1041s12.1483-6.0965,16.2787-3.4238-9.2327,6.56-9.2327,6.56,19.9232-7.4806,21.381-3.6188-16.0358,7.7493-16.0358,7.7493,21.1381-7.7749,21.1381-3.8875-15.55,8.0179-15.55,8.0179,20.6521-7.3434,22.11-3.4287-17.0076,6.83-17.0076,6.83l-16.3885-3.5639Z" transform="translate(-24.4113 -157.1152)" style="fill:#96278c;stroke-miterlimit:10;stroke:url(#linear-gradient-5)"/><path d="M122.0847,176.9194s3.6445-2.9156,7.289-1.9437-1.4578,4.13-1.4578,4.13,4.8593-3.8428,8.5038-2.1644-3.6445,4.3511-3.6445,4.3511,8.7468-4.3734,10.6905-1.2148-4.8593,4.13-4.8593,4.13,7.7749-2.9156,10.2046,0-6.56,4.13-6.56,4.13,11.6624-3.4015,12.1483,0-7.289,3.4015-7.289,3.4015,13.12-2.9156,12.3913,0-8.8011,3.3025-8.8011,3.3025l-7.7206-4.2743s-1.4578-4.9691-8.2609-8.3157S122.0847,176.9194,122.0847,176.9194Z" transform="translate(-24.4113 -157.1152)" style="fill:#512e87;stroke-miterlimit:10;stroke:url(#linear-gradient-6)"/><path d="M57.783,186.2333s5.5039-1.8625,8.1765,0a68.3113,68.3113,0,0,1,6.56,5.6694" transform="translate(-24.4113 -157.1152)" style="fill:none;stroke-miterlimit:10;stroke:url(#linear-gradient-7)"/><path d="M61.1,187.5491a1.0332,1.0332,0,0,0,0,2.0652A1.0332,1.0332,0,0,0,61.1,187.5491Z" transform="translate(-24.4113 -157.1152)" style="fill:#fff"/><path d="M66.6518,176.946a1.0584,1.0584,0,0,0-1.1505-.2246,0.8139,0.8139,0,0,0-.7906.0723,0.8506,0.8506,0,0,0-1.0143.498,4.1692,4.1692,0,0,0-.1855,3.4144,2.5059,2.5059,0,0,0,2.6479,1.817,2.5783,2.5783,0,0,0,1.958-2.3813A4.8885,4.8885,0,0,0,66.6518,176.946Z" transform="translate(-24.4113 -157.1152)" style="fill:#fff"/><path d="M65.96,177.1016a1.0332,1.0332,0,0,0,0,2.0652A1.0332,1.0332,0,0,0,65.96,177.1016Z" transform="translate(-24.4113 -157.1152)" style="fill:#fff"/><path d="M63.5554,253.1267s-4.847-10.148-8.4408-14.0642l-3.5938-3.9162s5.78,6.2646,7.5637,5.162,4.0914,5.0209,4.0914,5.0209Z" transform="translate(-24.4113 -157.1152)" style="fill:#ec1b8f;stroke-miterlimit:10;stroke:url(#linear-gradient-8)"/><path d="M64.4091,269.7385s3.36-11.1934,2.3653-18.8378a71.2019,71.2019,0,0,0-4.58-15.9967s0.036,3.997-1.3262,4.3017-5.198-3.4143-5.198-3.4143,6.5514,7.5456,7.1341,12.7076,2.07,7.976.61,13.5951l-1.4606,5.6191Z" transform="translate(-24.4113 -157.1152)" style="fill:#ec1b8f;stroke-miterlimit:10;stroke:url(#linear-gradient-9)"/><path d="M115.694,352.3979s-9.367-5.5336-13.7944-4.9412-4.7181,3.0045-9.4687,5.4667-9.5187,1.0068-11.4862-.9434-6.1695-4.8547-5.8312-10.1,3.4381-6.1933,2.9109-9.5361-2.883-4.5076-7.5947-6.8373S34.2092,306.0189,26.5813,271.426s13.35-67.7462,13.35-67.7462,3.1086,1.0108,2.3082,3.9979l-0.8,2.9871s1.2061,0.1453,1.49,3.0673-1.0672,3.9828-1.0672,3.9828,3.9026,3.3579,7.4669,11.9611,4.471,9.2019,5.46,14.8029,3.4364,13.727,5.5016,17.304,12.3,14.5012,17.5389,20.1737,11.0462,17.1889,10.6841,23.8507-1.0561,13.2347,1.64,16.4473,5.3778,9.8006,12.3238,13.0847,11.7466,5.2819,13.6665,10.065S115.694,352.3979,115.694,352.3979Z" transform="translate(-24.4113 -157.1152)" style="stroke-miterlimit:10;fill:url(#linear-gradient-10);stroke:url(#linear-gradient-11)"/><path d="M53.208,285.1038s-11.3539-7.4725-11.1045-12.3859,10.2976,4.7157,10.2976,4.7157S35.961,263.92,38.5765,260.7265s14.7289,10.0128,14.7289,10.0128S36.0032,256.3207,39.37,254.3769s14.7186,9.4576,14.7186,9.4576S37.4028,249.621,40.0641,246.4011s14.419,11.3139,14.419,11.3139L59.5909,273.69Z" transform="translate(-24.4113 -157.1152)" style="fill:#96278c;stroke-miterlimit:10;stroke:url(#linear-gradient-12)"/><path d="M59.7845,296.8641s-4.3472-1.6984-5.3278-5.3406,4.306-.8027,4.306-0.8027-5.7577-2.2869-6.1263-6.2823,5.59,0.9807,5.59.9807-8.1609-5.3882-6.3973-8.6508,6.0067,2.1431,6.0067,2.1431-6.4124-5.2755-5.1023-8.8374,6.8571,3.616,6.8571,3.616-8.777-8.3992-6.0742-10.5208,6.59,4.6117,6.59,4.6117-9.0851-9.9046-6.1956-10.7312S61.172,263.02,61.172,263.02l0.1586,8.8234s-3.5745,3.747-3.0712,11.312S59.7845,296.8641,59.7845,296.8641Z" transform="translate(-24.4113 -157.1152)" style="fill:#512e87;stroke-miterlimit:10;stroke:url(#linear-gradient-13)"/><path d="M100.0015,347.8941s-4.3649-3.8353-4.0883-7.0811a68.3113,68.3113,0,0,1,1.63-8.5159" transform="translate(-24.4113 -157.1152)" style="fill:none;stroke-miterlimit:10;stroke:url(#linear-gradient-14)"/><path d="M99.4824,344.3634a1.0332,1.0332,0,0,0,1.7885-1.0326A1.0332,1.0332,0,0,0,99.4824,344.3634Z" transform="translate(-24.4113 -157.1152)" style="fill:#fff"/><path d="M87.524,344.8571a1.0584,1.0584,0,0,0,.3807,1.1087,0.8139,0.8139,0,0,0,.4579.6486,0.8506,0.8506,0,0,0,.9384.6294,4.1692,4.1692,0,0,0,3.05-1.5466,2.5059,2.5059,0,0,0,.25-3.2016,2.5783,2.5783,0,0,0-3.0413-.505A4.8885,4.8885,0,0,0,87.524,344.8571Z" transform="translate(-24.4113 -157.1152)" style="fill:#fff"/><path d="M88.0049,345.3788a1.0332,1.0332,0,0,0,1.7885-1.0326A1.0332,1.0332,0,0,0,88.0049,345.3788Z" transform="translate(-24.4113 -157.1152)" style="fill:#fff"/><path d="M156.45,308.8847s-6.3649,9.2716-7.96,14.3421l-1.5946,5.07s2.5352-8.138.6885-9.1314,2.3025-6.0537,2.3025-6.0537Z" transform="translate(-24.4113 -157.1152)" style="fill:#ec1b8f;stroke-miterlimit:10;stroke:url(#linear-gradient-15)"/><path d="M170.41,299.84s-11.3739,2.6866-17.4967,7.3706A71.2019,71.2019,0,0,0,141.35,319.1749s3.4435-2.03,4.3885-1.0023-0.3579,6.2087-.3579,6.2087,3.259-9.4465,7.4381-12.5321,5.8721-5.7811,11.4687-7.3257l5.5966-1.5447Z" transform="translate(-24.4113 -157.1152)" style="fill:#ec1b8f;stroke-miterlimit:10;stroke:url(#linear-gradient-16)"/><path d="M216.3524,214.0958s-0.1087,10.8788,2.618,14.4169,4.961,2.5837,9.4687,5.4667,5.6312,7.74,4.9261,10.4191-1.12,7.77-5.8312,10.1-7.0826.1191-9.714,2.2471-2.4622,4.7506-2.1239,9.9959,1.2334,41.1118-24.9111,65.0142-65.345,22.3115-65.345,22.3115-0.6789-3.1975,2.3082-3.9979l2.9871-.8s-0.4772-1.1172,1.9112-2.8243,3.9828-1.0672,3.9828-1.0672,0.9568-5.0587,6.6252-12.447,5.7335-8.473,10.0895-12.13,10.17-9.84,12.2349-13.4166,6.4084-17.9027,8.7015-25.276,9.3629-18.1608,15.3133-21.1781,11.99-5.7027,13.4236-9.6442,5.7986-9.5576,5.17-17.2151-1.2991-12.8138,1.8833-16.8681S216.3524,214.0958,216.3524,214.0958Z" transform="translate(-24.4113 -157.1152)" style="stroke-miterlimit:10;fill:url(#linear-gradient-17);stroke:url(#linear-gradient-18)"/><path d="M189.3171,301.8573s-0.7945,13.569-5.1742,15.81-1.0648-11.2758-1.0648-11.2758-3.4832,20.9943-7.5565,20.3259,1.3068-17.762,1.3068-17.762-3.8358,22.1936-7.2024,20.25,0.8312-17.4755.8312-17.4755-3.9665,21.557-8.0856,20.8621,2.5886-18.1442,2.5886-18.1442l11.2807-12.4109Z" transform="translate(-24.4113 -157.1152)" style="fill:#96278c;stroke-miterlimit:10;stroke:url(#linear-gradient-19)"/><path d="M196.2135,290.2817s0.7027,4.614-1.9612,7.2843-2.8482-3.3277-2.8482-3.3277,0.8983,6.13-2.3775,8.4467-1.9459-5.3318-1.9459-5.3318-0.5859,9.7616-4.2932,9.8657-1.1474-6.2735-1.1474-6.2735-1.3625,8.1911-5.1023,8.8374-0.297-7.7464-.297-7.7464-2.8854,11.8007-6.0742,10.5208,0.6987-8.0132.6987-8.0132-4.0351,12.82-6.1956,10.7312,1.5405-9.2732,1.5405-9.2732l7.562-4.549s5.0323,1.2221,11.3321-2.9962S196.2135,290.2817,196.2135,290.2817Z" transform="translate(-24.4113 -157.1152)" style="fill:#512e87;stroke-miterlimit:10;stroke:url(#linear-gradient-20)"/><path d="M220.2983,229.9378s-1.139,5.6978-4.0883,7.0811a68.3113,68.3113,0,0,1-8.19,2.8465" transform="translate(-24.4113 -157.1152)" style="fill:none;stroke-miterlimit:10;stroke:url(#linear-gradient-21)"/><path d="M217.5,232.1527a1.0332,1.0332,0,0,0-1.7885-1.0326A1.0332,1.0332,0,0,0,217.5,232.1527Z" transform="translate(-24.4113 -157.1152)" style="fill:#fff"/><path d="M223.9069,242.2621a1.0584,1.0584,0,0,0,.77-0.8841,0.8139,0.8139,0,0,0,.3327-0.7208,0.8506,0.8506,0,0,0,.0759-1.1274,4.1692,4.1692,0,0,0-2.8642-1.8679,2.5059,2.5059,0,0,0-2.8975,1.3847,2.5783,2.5783,0,0,0,1.0833,2.8863A4.8885,4.8885,0,0,0,223.9069,242.2621Z" transform="translate(-24.4113 -157.1152)" style="fill:#fff"/><path d="M224.1183,241.5847a1.0332,1.0332,0,0,0-1.7885-1.0326A1.0332,1.0332,0,0,0,224.1183,241.5847Z" transform="translate(-24.4113 -157.1152)" style="fill:#fff"/></svg>